AtkinsonHyperlegibleMono-Bold.sfdir
StartChar: exclam
Encoding: 33 33 254
Width: 632
GlyphClass: 1
Flags: W
LayerCount: 2
Fore
SplineSet
240 495 m 1,0,-1
 240 668 l 1,1,-1
 391 668 l 1,2,-1
 391 495 l 1,3,-1
 362 234 l 1,4,-1
 268 234 l 1,5,-1
 240 495 l 1,0,-1
250.5 15 m 128,-1,7
 224 42 224 42 224 80 c 256,8,9
 224 118 224 118 250.5 144.5 c 128,-1,10
 277 171 277 171 315 171 c 256,11,12
 353 171 353 171 380 144.5 c 128,-1,13
 407 118 407 118 407 80 c 256,14,15
 407 42 407 42 380 15 c 128,-1,16
 353 -12 353 -12 315 -12 c 256,17,6
 277 -12 277 -12 250.5 15 c 128,-1,7
EndSplineSet
EndChar
StartChar: quotedbl
Encoding: 34 34 284
Width: 632
GlyphClass: 1
Flags: W
LayerCount: 2
Fore
SplineSet
139 668 m 1,0,-1
 278 668 l 1,1,-1
 262 423 l 1,2,-1
 154 423 l 1,3,-1
 139 668 l 1,0,-1
354 668 m 1,4,-1
 493 668 l 1,5,-1
 478 423 l 1,6,-1
 370 423 l 1,7,-1
 354 668 l 1,4,-1
EndSplineSet
EndChar
StartChar: numbersign
Encoding: 35 35 261
Width: 632
GlyphClass: 1
Flags: W
LayerCount: 2
Fore
SplineSet
111 156 m 1,0,-1
 25 156 l 1,1,-1
 39 275 l 1,2,-1
 123 275 l 1,3,-1
 137 393 l 1,4,-1
 52 393 l 1,5,-1
 66 512 l 1,6,-1
 151 512 l 1,7,-1
 169 668 l 1,8,-1
 296 668 l 1,9,-1
 277 512 l 1,10,-1
 395 512 l 1,11,-1
 413 668 l 1,12,-1
 540 668 l 1,13,-1
 521 512 l 1,14,-1
 607 512 l 1,15,-1
 593 393 l 1,16,-1
 509 393 l 1,17,-1
 495 275 l 1,18,-1
 580 275 l 1,19,-1
 566 156 l 1,20,-1
 482 156 l 1,21,-1
 463 0 l 1,22,-1
 336 0 l 1,23,-1
 355 156 l 1,24,-1
 237 156 l 1,25,-1
 219 0 l 1,26,-1
 92 0 l 1,27,-1
 111 156 l 1,0,-1
369 275 m 1,28,-1
 383 393 l 1,29,-1
 264 393 l 1,30,-1
 250 275 l 1,31,-1
 369 275 l 1,28,-1
EndSplineSet
EndChar
StartChar: dollar
Encoding: 36 36 304
Width: 632
GlyphClass: 1
Flags: W
LayerCount: 2
Fore
SplineSet
135.5 40.5 m 128,-1,1
 73 83 73 83 46 155 c 1,2,-1
 175 203 l 1,3,4
 185 166 185 166 214.5 140 c 128,-1,5
 244 114 244 114 284 106 c 1,6,-1
 284 287 l 1,7,-1
 251 294 l 2,8,9
 61 336 61 336 61 476 c 0,10,11
 61 535 61 535 92 578 c 128,-1,12
 123 621 123 621 174 646 c 128,-1,13
 225 671 225 671 284 677 c 1,14,-1
 284 758 l 1,15,-1
 349 758 l 1,16,-1
 349 679 l 1,17,18
 423 674 423 674 482.5 639 c 128,-1,19
 542 604 542 604 569 539 c 1,20,-1
 441 490 l 1,21,22
 429 519 429 519 405 537 c 128,-1,23
 381 555 381 555 349 562 c 1,24,-1
 349 400 l 1,25,-1
 369 395 l 1,26,27
 478 373 478 373 532 331 c 128,-1,28
 586 289 586 289 586 206 c 0,29,30
 586 144 586 144 553.5 97 c 128,-1,31
 521 50 521 50 467 22.5 c 128,-1,32
 413 -5 413 -5 349 -10 c 1,33,-1
 349 -90 l 1,34,-1
 284 -90 l 1,35,-1
 284 -10 l 1,36,0
 198 -2 198 -2 135.5 40.5 c 128,-1,1
417.5 129.5 m 128,-1,38
 444 151 444 151 444 189 c 0,39,40
 444 219 444 219 423.5 239 c 128,-1,41
 403 259 403 259 360 270 c 2,42,-1
 349 273 l 1,43,-1
 349 103 l 1,44,37
 391 108 391 108 417.5 129.5 c 128,-1,38
225 539.5 m 128,-1,46
 203 520 203 520 203 489 c 0,47,48
 203 435 203 435 273 417 c 2,49,-1
 284 414 l 1,50,-1
 284 564 l 1,51,45
 247 559 247 559 225 539.5 c 128,-1,46
EndSplineSet
EndChar
StartChar: parenright
Encoding: 41 41 269
Width: 632
GlyphClass: 1
Flags: W
LayerCount: 2
Fore
SplineSet
297.5 50.5 m 128,-1,1
 355 163 355 163 355 273 c 256,2,3
 355 383 355 383 297.5 495.5 c 128,-1,4
 240 608 240 608 134 708 c 1,5,-1
 294 708 l 1,6,7
 390 612 390 612 441 500.5 c 128,-1,8
 492 389 492 389 492 273 c 256,9,10
 492 157 492 157 441 45.5 c 128,-1,11
 390 -66 390 -66 294 -162 c 1,12,-1
 134 -162 l 1,13,0
 240 -62 240 -62 297.5 50.5 c 128,-1,1
EndSplineSet
EndChar
StartChar: asterisk
Encoding: 42 42 260
Width: 632
GlyphClass: 1
Flags: W
LayerCount: 2
Fore
SplineSet
177 366 m 1,0,-1
 252 467 l 1,1,-1
 132 506 l 1,2,-1
 157 583 l 1,3,-1
 275 544 l 1,4,-1
 275 669 l 1,5,-1
 357 669 l 1,6,-1
 357 544 l 1,7,-1
 474 583 l 1,8,-1
 501 506 l 1,9,-1
 381 467 l 1,10,-1
 456 365 l 1,11,-1
 391 318 l 1,12,-1
 316 419 l 1,13,-1
 243 319 l 1,14,-1
 177 366 l 1,0,-1
EndSplineSet
EndChar
StartChar: hyphen
Encoding: 45 45 264
Width: 632
GlyphClass: 1
Flags: W
LayerCount: 2
Fore
SplineSet
156 309 m 1,0,-1
 476 309 l 1,1,-1
 476 188 l 1,2,-1
 156 188 l 1,3,-1
 156 309 l 1,0,-1
EndSplineSet
EndChar
StartChar: period
Encoding: 46 46 249
Width: 632
GlyphClass: 1
Flags: W
LayerCount: 2
Fore
SplineSet
244.5 18 m 128,-1,1
 215 48 215 48 215 89 c 0,2,3
 215 131 215 131 244.5 161 c 128,-1,4
 274 191 274 191 316 191 c 256,5,6
 358 191 358 191 387.5 161 c 128,-1,7
 417 131 417 131 417 89 c 0,8,9
 417 48 417 48 387.5 18 c 128,-1,10
 358 -12 358 -12 316 -12 c 256,11,0
 274 -12 274 -12 244.5 18 c 128,-1,1
EndSplineSet
EndChar
StartChar: zero
Encoding: 48 48 229
Width: 632
GlyphClass: 1
Flags: W
LayerCount: 2
Fore
SplineSet
107.5 80 m 128,-1,1
 34 172 34 172 34 335 c 256,2,3
 34 498 34 498 107.5 589.5 c 128,-1,4
 181 681 181 681 316 681 c 256,5,6
 451 681 451 681 524.5 589.5 c 128,-1,7
 598 498 598 498 598 335 c 256,8,9
 598 172 598 172 524.5 80 c 128,-1,10
 451 -12 451 -12 316 -12 c 256,11,0
 181 -12 181 -12 107.5 80 c 128,-1,1
407 133 m 1,13,-1
 189 447 l 1,14,15
 175 401 175 401 175 336 c 0,16,17
 175 213 175 213 213 152.5 c 128,-1,18
 251 92 251 92 316 92 c 0,19,12
 373 92 373 92 407 133 c 1,13,-1
457 336 m 0,21,22
 457 435 457 435 423 506 c 128,-1,23
 389 577 389 577 316 577 c 0,24,25
 262 577 262 577 228 537 c 1,26,-1
 444 224 l 1,27,20
 457 269 457 269 457 336 c 0,21,22
EndSplineSet
Substitution2: "'zero' Slashed Zero in Latin lookup 10 subtable" zero.zero
AlternateSubs2: "'aalt' Access All Alternates in Latin lookup 0 subtable" zero.zero
EndChar
StartChar: four
Encoding: 52 52 233
Width: 632
GlyphClass: 5
Flags: W
LayerCount: 2
Fore
SplineSet
363 145 m 1,0,-1
 36 145 l 1,1,-1
 36 250 l 1,2,-1
 358 668 l 1,3,-1
 504 668 l 1,4,-1
 504 269 l 1,5,-1
 597 269 l 1,6,-1
 597 145 l 1,7,-1
 504 145 l 1,8,-1
 504 0 l 1,9,-1
 363 0 l 1,10,-1
 363 145 l 1,0,-1
363 269 m 1,11,-1
 363 485 l 1,12,-1
 359 485 l 1,13,-1
 188 269 l 1,14,-1
 363 269 l 1,11,-1
EndSplineSet
EndChar
StartChar: five
Encoding: 53 53 234
Width: 632
GlyphClass: 1
Flags: W
LayerCount: 2
Fore
SplineSet
159.5 28 m 128,-1,1
 94 68 94 68 65 141 c 1,2,-1
 187 185 l 1,3,4
 212 93 212 93 307 93 c 0,5,6
 363 93 363 93 398 126.5 c 128,-1,7
 433 160 433 160 433 221 c 0,8,9
 433 283 433 283 397.5 315.5 c 128,-1,10
 362 348 362 348 310 348 c 0,11,12
 234 348 234 348 195 281 c 1,13,-1
 71 327 l 1,14,-1
 112 668 l 1,15,-1
 547 668 l 1,16,-1
 547 553 l 1,17,-1
 229 553 l 1,18,-1
 212 414 l 1,19,20
 236 432 236 432 273 442.5 c 128,-1,21
 310 453 310 453 347 453 c 0,22,23
 408 453 408 453 461 426.5 c 128,-1,24
 514 400 514 400 546 347.5 c 128,-1,25
 578 295 578 295 578 221 c 256,26,27
 578 147 578 147 542 94.5 c 128,-1,28
 506 42 506 42 446 15 c 128,-1,29
 386 -12 386 -12 314 -12 c 0,30,0
 225 -12 225 -12 159.5 28 c 128,-1,1
EndSplineSet
EndChar
StartChar: six
Encoding: 54 54 235
Width: 632
GlyphClass: 1
Flags: W
LayerCount: 2
Fore
SplineSet
176.5 30 m 128,-1,1
 117 72 117 72 87.5 144 c 128,-1,2
 58 216 58 216 58 307 c 0,3,4
 58 473 58 473 127 576.5 c 128,-1,5
 196 680 196 680 340 680 c 0,6,7
 489 680 489 680 548 572 c 1,8,-1
 422 526 l 1,9,10
 411 549 411 549 387 562.5 c 128,-1,11
 363 576 363 576 332 576 c 0,12,13
 274 576 274 576 238.5 526 c 128,-1,14
 203 476 203 476 201 388 c 1,15,16
 226 416 226 416 266.5 433 c 128,-1,17
 307 450 307 450 356 450 c 0,18,19
 418 450 418 450 468.5 421.5 c 128,-1,20
 519 393 519 393 548.5 342 c 128,-1,21
 578 291 578 291 578 226 c 0,22,23
 578 157 578 157 545.5 103 c 128,-1,24
 513 49 513 49 454.5 18.5 c 128,-1,25
 396 -12 396 -12 322 -12 c 0,26,0
 236 -12 236 -12 176.5 30 c 128,-1,1
404.5 126.5 m 128,-1,28
 435 161 435 161 435 219 c 0,29,30
 435 275 435 275 404 309.5 c 128,-1,31
 373 344 373 344 321 344 c 0,32,33
 270 344 270 344 238.5 310 c 128,-1,34
 207 276 207 276 207 219 c 0,35,36
 207 161 207 161 238 126.5 c 128,-1,37
 269 92 269 92 322 92 c 0,38,27
 374 92 374 92 404.5 126.5 c 128,-1,28
EndSplineSet
EndChar
StartChar: nine
Encoding: 57 57 238
Width: 632
GlyphClass: 1
Flags: W
LayerCount: 2
Fore
SplineSet
199 225 m 128,-1,1
 140 255 140 255 104 311.5 c 128,-1,2
 68 368 68 368 68 438 c 0,3,4
 68 504 68 504 100.5 559.5 c 128,-1,5
 133 615 133 615 188 647.5 c 128,-1,6
 243 680 243 680 308 680 c 0,7,8
 374 680 374 680 430.5 647.5 c 128,-1,9
 487 615 487 615 520 559 c 128,-1,10
 553 503 553 503 553 437 c 0,11,12
 553 401 553 401 542.5 366 c 128,-1,13
 532 331 532 331 505 279 c 2,14,-1
 357 0 l 1,15,-1
 213 0 l 1,16,-1
 323 199 l 1,17,0
 258 195 258 195 199 225 c 128,-1,1
395.5 353 m 128,-1,19
 430 388 430 388 430 437 c 0,20,21
 430 464 430 464 415.5 492 c 128,-1,22
 401 520 401 520 374 538 c 128,-1,23
 347 556 347 556 311 556 c 0,24,25
 276 556 276 556 249 539.5 c 128,-1,26
 222 523 222 523 207 495.5 c 128,-1,27
 192 468 192 468 192 437 c 0,28,29
 192 403 192 403 209 375.5 c 128,-1,30
 226 348 226 348 253.5 333 c 128,-1,31
 281 318 281 318 312 318 c 0,32,18
 361 318 361 318 395.5 353 c 128,-1,19
EndSplineSet
EndChar
StartChar: greater
Encoding: 62 62 317
Width: 632
GlyphClass: 1
Flags: W
LayerCount: 2
Fore
SplineSet
72 122 m 1,0,-1
 404 249 l 1,1,-1
 72 375 l 1,2,-1
 72 507 l 1,3,-1
 560 295 l 1,4,-1
 560 203 l 1,5,-1
 72 -9 l 1,6,-1
 72 122 l 1,0,-1
EndSplineSet
EndChar
StartChar: question
Encoding: 63 63 256
Width: 632
GlyphClass: 1
Flags: W
LayerCount: 2
Fore
SplineSet
235.5 351 m 128,-1,1
 263 390 263 390 327 417 c 0,2,3
 376 437 376 437 399 457.5 c 128,-1,4
 422 478 422 478 422 504 c 0,5,6
 422 532 422 532 394 550 c 128,-1,7
 366 568 366 568 320 568 c 0,8,9
 273 568 273 568 238 545.5 c 128,-1,10
 203 523 203 523 189 486 c 1,11,-1
 62 531 l 1,12,13
 87 601 87 601 156 640.5 c 128,-1,14
 225 680 225 680 322 680 c 0,15,16
 387 680 387 680 443 660 c 128,-1,17
 499 640 499 640 533.5 600.5 c 128,-1,18
 568 561 568 561 568 506 c 0,19,20
 568 447 568 447 535 410.5 c 128,-1,21
 502 374 502 374 436 339 c 0,22,23
 382 312 382 312 365.5 292.5 c 128,-1,24
 349 273 349 273 349 245 c 2,25,-1
 349 224 l 1,26,-1
 208 224 l 1,27,-1
 208 243 l 2,28,0
 208 312 208 312 235.5 351 c 128,-1,1
216 15 m 128,-1,30
 189 42 189 42 189 80 c 256,31,32
 189 118 189 118 216 144 c 128,-1,33
 243 170 243 170 281 170 c 0,34,35
 318 170 318 170 345 144 c 128,-1,36
 372 118 372 118 372 80 c 256,37,38
 372 42 372 42 345 15 c 128,-1,39
 318 -12 318 -12 281 -12 c 0,40,29
 243 -12 243 -12 216 15 c 128,-1,30
EndSplineSet
EndChar
StartChar: C
Encoding: 67 67 14
Width: 632
GlyphClass: 2
Flags: W
AnchorPoint: "Anchor-1" 339 668 basechar 0
AnchorPoint: "Anchor-0" 338 0 basechar 0
LayerCount: 2
Fore
SplineSet
186.5 30.5 m 128,-1,1
 122 73 122 73 87 151 c 128,-1,2
 52 229 52 229 52 334 c 0,3,4
 52 438 52 438 87.5 516 c 128,-1,5
 123 594 123 594 188.5 637 c 128,-1,6
 254 680 254 680 340 680 c 0,7,8
 420 680 420 680 482 638.5 c 128,-1,9
 544 597 544 597 576 522 c 1,10,-1
 462 480 l 1,11,12
 444 522 444 522 413.5 543 c 128,-1,13
 383 564 383 564 343 564 c 0,14,15
 301 564 301 564 267 536.5 c 128,-1,16
 233 509 233 509 213.5 457 c 128,-1,17
 194 405 194 405 194 334 c 0,18,19
 194 261 194 261 214 209 c 128,-1,20
 234 157 234 157 268.5 130.5 c 128,-1,21
 303 104 303 104 347 104 c 0,22,23
 384 104 384 104 416.5 124 c 128,-1,24
 449 144 449 144 468 187 c 1,25,-1
 579 146 l 1,26,27
 544 71 544 71 482 29.5 c 128,-1,28
 420 -12 420 -12 338 -12 c 0,29,0
 251 -12 251 -12 186.5 30.5 c 128,-1,1
EndSplineSet
EndChar
StartChar: F
Encoding: 70 70 32
Width: 632
GlyphClass: 2
Flags: W
AnchorPoint: "Anchor-1" 311 668 basechar 0
AnchorPoint: "Anchor-0" 311 0 basechar 0
LayerCount: 2
Fore
SplineSet
103 668 m 1,0,-1
 559 668 l 1,1,-1
 559 540 l 1,2,-1
 248 540 l 1,3,-1
 248 380 l 1,4,-1
 555 380 l 1,5,-1
 555 252 l 1,6,-1
 248 252 l 1,7,-1
 248 0 l 1,8,-1
 103 0 l 1,9,-1
 103 668 l 1,0,-1
EndSplineSet
EndChar
StartChar: J
Encoding: 74 74 48
Width: 632
GlyphClass: 2
Flags: W
AnchorPoint: "Anchor-1" 481 668 basechar 0
AnchorPoint: "Anchor-0" 313 0 basechar 0
LayerCount: 2
Fore
SplineSet
110.5 37.5 m 128,-1,1
 45 87 45 87 26 177 c 1,2,-1
 160 226 l 1,3,4
 169 167 169 167 201.5 135 c 128,-1,5
 234 103 234 103 287 103 c 0,6,7
 347 103 347 103 377.5 136 c 128,-1,8
 408 169 408 169 408 247 c 2,9,-1
 408 668 l 1,10,-1
 553 668 l 1,11,-1
 553 246 l 2,12,13
 553 123 553 123 484.5 55.5 c 128,-1,14
 416 -12 416 -12 286 -12 c 0,15,0
 176 -12 176 -12 110.5 37.5 c 128,-1,1
EndSplineSet
Substitution2: "Single Substitution lookup 13 subtable" uni004A0301
AlternateSubs2: "'aalt' Access All Alternates in Latin lookup 0 subtable" uni004A0301
EndChar
StartChar: O
Encoding: 79 79 62
Width: 632
GlyphClass: 2
Flags: W
AnchorPoint: "Anchor-3" 609 668 basechar 0
AnchorPoint: "Anchor-2" 563 10 basechar 0
AnchorPoint: "Anchor-1" 317 668 basechar 0
AnchorPoint: "Anchor-0" 317 0 basechar 0
LayerCount: 2
Fore
SplineSet
167 30.5 m 128,-1,1
 104 73 104 73 70.5 151.5 c 128,-1,2
 37 230 37 230 37 334 c 256,3,4
 37 438 37 438 70.5 516.5 c 128,-1,5
 104 595 104 595 167 637.5 c 128,-1,6
 230 680 230 680 316 680 c 256,7,8
 402 680 402 680 465 637.5 c 128,-1,9
 528 595 528 595 561.5 516.5 c 128,-1,10
 595 438 595 438 595 334 c 256,11,12
 595 230 595 230 561.5 151.5 c 128,-1,13
 528 73 528 73 465 30.5 c 128,-1,14
 402 -12 402 -12 316 -12 c 256,15,0
 230 -12 230 -12 167 30.5 c 128,-1,1
416.5 163 m 128,-1,17
 453 222 453 222 453 334 c 256,18,19
 453 446 453 446 416.5 505 c 128,-1,20
 380 564 380 564 316 564 c 256,21,22
 252 564 252 564 215.5 505 c 128,-1,23
 179 446 179 446 179 334 c 256,24,25
 179 222 179 222 215.5 163 c 128,-1,26
 252 104 252 104 316 104 c 256,27,16
 380 104 380 104 416.5 163 c 128,-1,17
EndSplineSet
Substitution2: "Single Substitution lookup 14 subtable" ordmasculine
AlternateSubs2: "'aalt' Access All Alternates in Latin lookup 0 subtable" ordmasculine
EndChar
StartChar: R
Encoding: 82 82 74
Width: 632
GlyphClass: 2
Flags: W
AnchorPoint: "Anchor-1" 296 668 basechar 0
AnchorPoint: "Anchor-0" 316 0 basechar 0
LayerCount: 2
Fore
SplineSet
66 668 m 1,0,-1
 319 668 l 2,1,2
 428 668 428 668 497 616.5 c 128,-1,3
 566 565 566 565 566 462 c 0,4,5
 566 383 566 383 525 336 c 128,-1,6
 484 289 484 289 413 271 c 1,7,-1
 593 0 l 1,8,-1
 436 0 l 1,9,-1
 273 255 l 1,10,-1
 199 255 l 1,11,-1
 199 0 l 1,12,-1
 66 0 l 1,13,-1
 66 668 l 1,0,-1
397 392.5 m 128,-1,15
 427 415 427 415 427 462 c 0,16,17
 427 508 427 508 397 530.5 c 128,-1,18
 367 553 367 553 317 553 c 2,19,-1
 199 553 l 1,20,-1
 199 370 l 1,21,-1
 317 370 l 2,22,14
 367 370 367 370 397 392.5 c 128,-1,15
EndSplineSet
EndChar
StartChar: U
Encoding: 85 85 87
Width: 632
GlyphClass: 2
Flags: W
AnchorPoint: "Anchor-3" 630 668 basechar 0
AnchorPoint: "Anchor-1" 316 668 basechar 0
LayerCount: 2
Fore
SplineSet
118.5 54 m 128,-1,1
 58 120 58 120 58 261 c 2,2,-1
 58 668 l 1,3,-1
 204 668 l 1,4,-1
 204 242 l 2,5,6
 204 175 204 175 229 140.5 c 128,-1,7
 254 106 254 106 317 106 c 256,8,9
 380 106 380 106 404 140 c 128,-1,10
 428 174 428 174 428 242 c 2,11,-1
 428 668 l 1,12,-1
 574 668 l 1,13,-1
 574 261 l 2,14,15
 574 120 574 120 513.5 54 c 128,-1,16
 453 -12 453 -12 317 -12 c 0,17,0
 179 -12 179 -12 118.5 54 c 128,-1,1
EndSplineSet
EndChar
StartChar: Y
Encoding: 89 89 103
Width: 632
GlyphClass: 2
Flags: W
AnchorPoint: "Anchor-1" 315 668 basechar 0
AnchorPoint: "Anchor-0" 317 0 basechar 0
LayerCount: 2
Fore
SplineSet
249 263 m 1,0,-1
 13 668 l 1,1,-1
 169 668 l 1,2,-1
 315 402 l 1,3,-1
 319 402 l 1,4,-1
 465 668 l 1,5,-1
 619 668 l 1,6,-1
 383 263 l 1,7,-1
 383 0 l 1,8,-1
 249 0 l 1,9,-1
 249 263 l 1,0,-1
EndSplineSet
EndChar
StartChar: asciicircum
Encoding: 94 94 325
Width: 632
GlyphClass: 1
Flags: W
LayerCount: 2
Fore
SplineSet
263 668 m 1,0,-1
 369 668 l 1,1,-1
 554 311 l 1,2,-1
 422 311 l 1,3,-1
 317 520 l 1,4,-1
 210 311 l 1,5,-1
 78 311 l 1,6,-1
 263 668 l 1,0,-1
EndSplineSet
EndChar
StartChar: a
Encoding: 97 97 112
Width: 632
GlyphClass: 2
Flags: W
AnchorPoint: "Anchor-2" 554 10 basechar 0
AnchorPoint: "Anchor-1" 315 496 basechar 0
AnchorPoint: "Anchor-0" 315 0 basechar 0
LayerCount: 2
Fore
SplineSet
111.5 27 m 128,-1,1
 63 66 63 66 63 131 c 0,2,3
 63 218 63 218 147.5 260.5 c 128,-1,4
 232 303 232 303 403 313 c 1,5,-1
 403 326 l 2,6,7
 403 415 403 415 307 415 c 0,8,9
 271 415 271 415 244.5 397.5 c 128,-1,10
 218 380 218 380 210 352 c 1,11,-1
 92 392 l 1,12,13
 116 445 116 445 174.5 477.5 c 128,-1,14
 233 510 233 510 314 510 c 0,15,16
 536 510 536 510 536 312 c 2,17,-1
 536 187 l 2,18,19
 536 130 536 130 541 79.5 c 128,-1,20
 546 29 546 29 554 0 c 1,21,-1
 426 0 l 1,22,-1
 408 64 l 1,23,24
 359 -12 359 -12 236 -12 c 0,25,0
 160 -12 160 -12 111.5 27 c 128,-1,1
372 110 m 128,-1,27
 403 138 403 138 403 202 c 2,28,-1
 403 229 l 1,29,30
 303 223 303 223 254.5 203 c 128,-1,31
 206 183 206 183 206 143 c 0,32,33
 206 116 206 116 227.5 99 c 128,-1,34
 249 82 249 82 285 82 c 0,35,26
 341 82 341 82 372 110 c 128,-1,27
EndSplineSet
Substitution2: "Single Substitution lookup 14 subtable" ordfeminine
AlternateSubs2: "'aalt' Access All Alternates in Latin lookup 0 subtable" ordfeminine
EndChar
StartChar: c
Encoding: 99 99 124
Width: 632
GlyphClass: 2
Flags: W
AnchorPoint: "Anchor-1" 350 496 basechar 0
AnchorPoint: "Anchor-0" 342 0 basechar 0
LayerCount: 2
Fore
SplineSet
146 59.5 m 128,-1,1
 77 131 77 131 77 250 c 0,2,3
 77 326 77 326 110.5 385 c 128,-1,4
 144 444 144 444 204 477 c 128,-1,5
 264 510 264 510 340 510 c 0,6,7
 419 510 419 510 480.5 477.5 c 128,-1,8
 542 445 542 445 572 382 c 1,9,-1
 455 339 l 1,10,11
 442 369 442 369 415 385 c 128,-1,12
 388 401 388 401 350 401 c 0,13,14
 296 401 296 401 258 364 c 128,-1,15
 220 327 220 327 220 250 c 0,16,17
 220 172 220 172 257.5 134.5 c 128,-1,18
 295 97 295 97 349 97 c 0,19,20
 385 97 385 97 414 110.5 c 128,-1,21
 443 124 443 124 457 148 c 1,22,-1
 571 107 l 1,23,24
 541 52 541 52 479.5 20 c 128,-1,25
 418 -12 418 -12 341 -12 c 0,26,0
 215 -12 215 -12 146 59.5 c 128,-1,1
EndSplineSet
EndChar
StartChar: e
Encoding: 101 101 133
Width: 632
GlyphClass: 2
Flags: W
AnchorPoint: "Anchor-2" 502 10 basechar 0
AnchorPoint: "Anchor-1" 331 496 basechar 0
AnchorPoint: "Anchor-0" 318 0 basechar 0
LayerCount: 2
Fore
SplineSet
190 20 m 128,-1,1
 129 52 129 52 95.5 111 c 128,-1,2
 62 170 62 170 62 250 c 0,3,4
 62 327 62 327 97 386.5 c 128,-1,5
 132 446 132 446 192 478 c 128,-1,6
 252 510 252 510 325 510 c 0,7,8
 400 510 400 510 457.5 476 c 128,-1,9
 515 442 515 442 546 381.5 c 128,-1,10
 577 321 577 321 577 243 c 0,11,12
 577 224 577 224 576 214 c 1,13,-1
 199 214 l 1,14,15
 208 154 208 154 244.5 125.5 c 128,-1,16
 281 97 281 97 333 97 c 0,17,18
 400 97 400 97 434 138 c 1,19,-1
 546 97 l 1,20,21
 512 46 512 46 456 17 c 128,-1,22
 400 -12 400 -12 331 -12 c 0,23,0
 251 -12 251 -12 190 20 c 128,-1,1
410.5 376 m 128,-1,25
 379 405 379 405 329 405 c 256,26,27
 279 405 279 405 244 379 c 128,-1,28
 209 353 209 353 199 298 c 1,29,-1
 446 298 l 1,30,24
 442 347 442 347 410.5 376 c 128,-1,25
EndSplineSet
EndChar
StartChar: f
Encoding: 102 102 142
Width: 632
GlyphClass: 2
Flags: W
AnchorPoint: "Anchor-1" 295 796 basechar 0
AnchorPoint: "Anchor-0" 295 0 basechar 0
LayerCount: 2
Fore
SplineSet
225 389 m 1,0,-1
 89 389 l 1,1,-1
 89 496 l 1,2,-1
 225 496 l 1,3,-1
 225 571 l 2,4,5
 225 629 225 629 243.5 660.5 c 128,-1,6
 262 692 262 692 301 705 c 128,-1,7
 340 718 340 718 407 718 c 2,8,-1
 590 718 l 1,9,-1
 590 606 l 1,10,-1
 431 606 l 2,11,12
 403 606 403 606 389.5 602.5 c 128,-1,13
 376 599 376 599 371 589 c 128,-1,14
 366 579 366 579 366 558 c 2,15,-1
 366 496 l 1,16,-1
 491 496 l 1,17,-1
 491 389 l 1,18,-1
 366 389 l 1,19,-1
 366 0 l 1,20,-1
 225 0 l 1,21,-1
 225 389 l 1,0,-1
EndSplineSet
EndChar
StartChar: h
Encoding: 104 104 147
Width: 632
GlyphClass: 2
Flags: W
AnchorPoint: "Anchor-1" 317 796 basechar 0
AnchorPoint: "Anchor-0" 317 0 basechar 0
LayerCount: 2
Fore
SplineSet
84 708 m 1,0,-1
 225 708 l 1,1,-1
 225 429 l 1,2,3
 244 460 244 460 286 485 c 128,-1,4
 328 510 328 510 382 510 c 0,5,6
 471 510 471 510 512.5 461.5 c 128,-1,7
 554 413 554 413 554 319 c 2,8,-1
 554 0 l 1,9,-1
 413 0 l 1,10,-1
 413 288 l 2,11,12
 413 345 413 345 392.5 373 c 128,-1,13
 372 401 372 401 328 401 c 0,14,15
 277 401 277 401 251 364 c 128,-1,16
 225 327 225 327 225 257 c 2,17,-1
 225 0 l 1,18,-1
 84 0 l 1,19,-1
 84 708 l 1,0,-1
EndSplineSet
EndChar
StartChar: l
Encoding: 108 108 163
Width: 632
GlyphClass: 2
Flags: W
AnchorPoint: "Anchor-3" 380 497 basechar 0
AnchorPoint: "Anchor-1" 294 796 basechar 0
AnchorPoint: "Anchor-0" 386 0 basechar 0
LayerCount: 2
Fore
SplineSet
257 10.5 m 128,-1,1
 224 21 224 21 209.5 49.5 c 128,-1,2
 195 78 195 78 195 134 c 2,3,-1
 195 601 l 1,4,-1
 80 601 l 1,5,-1
 80 708 l 1,6,-1
 336 708 l 1,7,-1
 336 173 l 2,8,9
 336 146 336 146 340.5 133.5 c 128,-1,10
 345 121 345 121 358 116 c 128,-1,11
 371 111 371 111 399 111 c 2,12,-1
 572 111 l 1,13,-1
 572 0 l 1,14,-1
 351 0 l 2,15,0
 290 0 290 0 257 10.5 c 128,-1,1
EndSplineSet
EndChar
StartChar: r
Encoding: 114 114 185
Width: 632
GlyphClass: 2
Flags: W
AnchorPoint: "Anchor-1" 327 496 basechar 0
AnchorPoint: "Anchor-0" 192 0 basechar 0
LayerCount: 2
Fore
SplineSet
122 496 m 1,0,-1
 233 496 l 1,1,-1
 257 398 l 1,2,3
 296 455 296 455 354 482 c 128,-1,4
 412 509 412 509 479 509 c 0,5,6
 521 509 521 509 568 499 c 1,7,-1
 568 361 l 1,8,9
 511 380 511 380 453 380 c 0,10,11
 363 380 363 380 313 330.5 c 128,-1,12
 263 281 263 281 263 188 c 2,13,-1
 263 0 l 1,14,-1
 122 0 l 1,15,-1
 122 496 l 1,0,-1
EndSplineSet
EndChar
StartChar: braceleft
Encoding: 123 123 270
Width: 632
GlyphClass: 1
Flags: W
LayerCount: 2
Fore
SplineSet
237.5 -126 m 128,-1,1
 200 -90 200 -90 200 -10 c 2,2,-1
 200 122 l 2,3,4
 200 159 200 159 192.5 178.5 c 128,-1,5
 185 198 185 198 165.5 206.5 c 128,-1,6
 146 215 146 215 109 217 c 1,7,-1
 109 329 l 1,8,9
 146 331 146 331 165.5 339.5 c 128,-1,10
 185 348 185 348 192.5 367.5 c 128,-1,11
 200 387 200 387 200 424 c 2,12,-1
 200 556 l 2,13,14
 200 636 200 636 237.5 672 c 128,-1,15
 275 708 275 708 364 708 c 2,16,-1
 495 708 l 1,17,-1
 495 598 l 1,18,-1
 387 598 l 2,19,20
 356 598 356 598 344.5 589 c 128,-1,21
 333 580 333 580 333 555 c 2,22,-1
 333 409 l 2,23,24
 333 350 333 350 312.5 321.5 c 128,-1,25
 292 293 292 293 242 276 c 1,26,-1
 242 270 l 1,27,28
 292 253 292 253 312.5 224.5 c 128,-1,29
 333 196 333 196 333 137 c 2,30,-1
 333 -9 l 2,31,32
 333 -34 333 -34 344.5 -43 c 128,-1,33
 356 -52 356 -52 387 -52 c 2,34,-1
 495 -52 l 1,35,-1
 495 -162 l 1,36,-1
 364 -162 l 2,37,0
 275 -162 275 -162 237.5 -126 c 128,-1,1
EndSplineSet
EndChar
StartChar: exclamdown
Encoding: 161 161 255
Width: 632
GlyphClass: 1
Flags: W
LayerCount: 2
Fore
SplineSet
240 3 m 1,0,-1
 268 264 l 1,1,-1
 362 264 l 1,2,-1
 391 3 l 1,3,-1
 391 -170 l 1,4,-1
 240 -170 l 1,5,-1
 240 3 l 1,0,-1
250.5 353.5 m 128,-1,7
 224 380 224 380 224 418 c 256,8,9
 224 456 224 456 250.5 483 c 128,-1,10
 277 510 277 510 315 510 c 256,11,12
 353 510 353 510 380 483 c 128,-1,13
 407 456 407 456 407 418 c 256,14,15
 407 380 407 380 380 353.5 c 128,-1,16
 353 327 353 327 315 327 c 256,17,6
 277 327 277 327 250.5 353.5 c 128,-1,7
EndSplineSet
EndChar
StartChar: cent
Encoding: 162 162 302
Width: 632
GlyphClass: 1
Flags: W
LayerCount: 2
Fore
SplineSet
146 71.5 m 128,-1,1
 91 143 91 143 91 250 c 0,2,3
 91 317 91 317 116.5 372.5 c 128,-1,4
 142 428 142 428 191 463.5 c 128,-1,5
 240 499 240 499 307 506 c 1,6,-1
 307 586 l 1,7,-1
 376 586 l 1,8,-1
 376 506 l 1,9,10
 440 499 440 499 487 466.5 c 128,-1,11
 534 434 534 434 559 381 c 1,12,-1
 442 340 l 1,13,14
 418 385 418 385 376 396 c 1,15,-1
 376 101 l 1,16,17
 419 108 419 108 443 148 c 1,18,-1
 557 105 l 1,19,20
 530 58 530 58 483 27.5 c 128,-1,21
 436 -3 436 -3 376 -10 c 1,22,-1
 376 -90 l 1,23,-1
 307 -90 l 1,24,-1
 307 -11 l 1,25,0
 201 0 201 0 146 71.5 c 128,-1,1
253 340 m 128,-1,27
 234 302 234 302 234 249 c 256,28,29
 234 196 234 196 252.5 157.5 c 128,-1,30
 271 119 271 119 307 105 c 1,31,-1
 307 392 l 1,32,26
 272 378 272 378 253 340 c 128,-1,27
EndSplineSet
EndChar
StartChar: sterling
Encoding: 163 163 307
Width: 632
GlyphClass: 1
Flags: W
LayerCount: 2
Fore
SplineSet
155 159.5 m 128,-1,1
 186 194 186 194 186 244 c 0,2,3
 186 272 186 272 175 300 c 1,4,-1
 62 300 l 1,5,-1
 62 369 l 1,6,-1
 138 369 l 1,7,8
 96 446 96 446 96 505 c 0,9,10
 96 586 96 586 164 632.5 c 128,-1,11
 232 679 232 679 340 679 c 0,12,13
 427 679 427 679 492.5 641 c 128,-1,14
 558 603 558 603 586 537 c 1,15,-1
 459 491 l 1,16,17
 448 530 448 530 416.5 548.5 c 128,-1,18
 385 567 385 567 343 567 c 0,19,20
 300 567 300 567 271.5 548 c 128,-1,21
 243 529 243 529 243 494 c 0,22,23
 243 469 243 469 253 445 c 128,-1,24
 263 421 263 421 290 369 c 1,25,-1
 457 369 l 1,26,-1
 457 300 l 1,27,-1
 322 300 l 1,28,29
 331 274 331 274 331 250 c 0,30,31
 331 209 331 209 304 173 c 128,-1,32
 277 137 277 137 231 109 c 1,33,34
 263 126 263 126 309 126 c 0,35,36
 336 126 336 126 388 114 c 0,37,38
 434 103 434 103 459 103 c 0,39,40
 485 103 485 103 508.5 110.5 c 128,-1,41
 532 118 532 118 560 133 c 1,42,-1
 600 22 l 1,43,44
 564 4 564 4 527.5 -4 c 128,-1,45
 491 -12 491 -12 446 -12 c 0,46,47
 407 -12 407 -12 344 7 c 0,48,49
 312 16 312 16 290.5 20.5 c 128,-1,50
 269 25 269 25 246 25 c 0,51,52
 179 25 179 25 113 -12 c 1,53,-1
 62 95 l 1,54,0
 124 125 124 125 155 159.5 c 128,-1,1
EndSplineSet
EndChar
StartChar: yen
Encoding: 165 165 308
Width: 632
GlyphClass: 1
Flags: W
LayerCount: 2
Fore
SplineSet
244 77 m 1,0,-1
 111 77 l 1,1,-1
 111 147 l 1,2,-1
 244 147 l 1,3,-1
 244 214 l 1,4,-1
 111 214 l 1,5,-1
 111 284 l 1,6,-1
 230 284 l 1,7,-1
 15 668 l 1,8,-1
 187 668 l 1,9,-1
 317 404 l 1,10,-1
 321 404 l 1,11,-1
 452 668 l 1,12,-1
 617 668 l 1,13,-1
 402 284 l 1,14,-1
 522 284 l 1,15,-1
 522 214 l 1,16,-1
 388 214 l 1,17,-1
 388 147 l 1,18,-1
 522 147 l 1,19,-1
 522 77 l 1,20,-1
 388 77 l 1,21,-1
 388 0 l 1,22,-1
 244 0 l 1,23,-1
 244 77 l 1,0,-1
EndSplineSet
EndChar
StartChar: brokenbar
Encoding: 166 166 297
Width: 632
GlyphClass: 1
Flags: W
LayerCount: 2
Fore
SplineSet
256 233 m 1,0,-1
 376 233 l 1,1,-1
 376 -162 l 1,2,-1
 256 -162 l 1,3,-1
 256 233 l 1,0,-1
256 838 m 1,4,-1
 376 838 l 1,5,-1
 376 443 l 1,6,-1
 256 443 l 1,7,-1
 256 838 l 1,4,-1
EndSplineSet
EndChar
StartChar: ordfeminine
Encoding: 170 170 223
Width: 632
GlyphClass: 1
Flags: W
LayerCount: 2
Fore
SplineSet
181.5 363 m 128,-1,1
 148 391 148 391 148 436 c 0,2,3
 148 496 148 496 201.5 524.5 c 128,-1,4
 255 553 255 553 376 562 c 1,5,6
 376 591 376 591 363 606.5 c 128,-1,7
 350 622 350 622 316 622 c 0,8,9
 293 622 293 622 276 613 c 128,-1,10
 259 604 259 604 255 586 c 1,11,-1
 168 614 l 1,12,13
 185 652 185 652 226 672.5 c 128,-1,14
 267 693 267 693 327 693 c 0,15,16
 399 693 399 693 436.5 660 c 128,-1,17
 474 627 474 627 474 553 c 2,18,-1
 474 473 l 2,19,20
 474 390 474 390 483 343 c 1,21,-1
 396 343 l 1,22,-1
 384 385 l 1,23,24
 353 335 353 335 273 335 c 0,25,0
 215 335 215 335 181.5 363 c 128,-1,1
355.5 426 m 128,-1,27
 377 446 377 446 377 477 c 2,28,-1
 377 497 l 1,29,30
 308 496 308 496 280 482 c 128,-1,31
 252 468 252 468 252 442 c 0,32,33
 252 406 252 406 300 406 c 0,34,26
 334 406 334 406 355.5 426 c 128,-1,27
EndSplineSet
EndChar
StartChar: logicalnot
Encoding: 172 172 323
Width: 632
GlyphClass: 1
Flags: W
LayerCount: 2
Fore
SplineSet
451 299 m 1,0,-1
 62 299 l 1,1,-1
 62 417 l 1,2,-1
 570 417 l 1,3,-1
 570 63 l 1,4,-1
 451 63 l 1,5,-1
 451 299 l 1,0,-1
EndSplineSet
EndChar
StartChar: degree
Encoding: 176 176 295
Width: 632
GlyphClass: 1
Flags: W
LayerCount: 2
Fore
SplineSet
237 385.5 m 128,-1,1
 201 407 201 407 180 443 c 128,-1,2
 159 479 159 479 159 522 c 256,3,4
 159 565 159 565 180 601 c 128,-1,5
 201 637 201 637 237 658 c 128,-1,6
 273 679 273 679 316 679 c 256,7,8
 359 679 359 679 395 658 c 128,-1,9
 431 637 431 637 452 601 c 128,-1,10
 473 565 473 565 473 522 c 256,11,12
 473 479 473 479 452 443 c 128,-1,13
 431 407 431 407 395 385.5 c 128,-1,14
 359 364 359 364 316 364 c 256,15,0
 273 364 273 364 237 385.5 c 128,-1,1
368.5 469.5 m 128,-1,17
 390 491 390 491 390 522 c 256,18,19
 390 553 390 553 368.5 574.5 c 128,-1,20
 347 596 347 596 316 596 c 256,21,22
 285 596 285 596 263.5 574.5 c 128,-1,23
 242 553 242 553 242 522 c 256,24,25
 242 491 242 491 263.5 469.5 c 128,-1,26
 285 448 285 448 316 448 c 256,27,16
 347 448 347 448 368.5 469.5 c 128,-1,17
EndSplineSet
EndChar
StartChar: uni00B2
Encoding: 178 178 245
Width: 632
GlyphClass: 1
Flags: W
LayerCount: 2
Fore
SplineSet
326.5 576.5 m 128,-1,1
 375 626 375 626 375 666 c 0,2,3
 375 689 375 689 360 702 c 128,-1,4
 345 715 345 715 320 715 c 0,5,6
 296 715 296 715 277.5 700.5 c 128,-1,7
 259 686 259 686 255 660 c 1,8,-1
 169 689 l 1,9,10
 183 735 183 735 223.5 760.5 c 128,-1,11
 264 786 264 786 324 786 c 0,12,13
 391 786 391 786 431.5 755.5 c 128,-1,14
 472 725 472 725 472 670 c 0,15,16
 472 613 472 613 427.5 562.5 c 128,-1,17
 383 512 383 512 288 445 c 1,18,-1
 475 445 l 1,19,-1
 475 364 l 1,20,-1
 157 364 l 1,21,-1
 157 440 l 1,22,0
 278 527 278 527 326.5 576.5 c 128,-1,1
EndSplineSet
EndChar
StartChar: uni00B3
Encoding: 179 179 246
Width: 632
GlyphClass: 1
Flags: W
LayerCount: 2
Fore
SplineSet
213 382 m 128,-1,1
 173 407 173 407 155 451 c 1,2,-1
 240 480 l 1,3,4
 248 456 248 456 267 442.5 c 128,-1,5
 286 429 286 429 314 429 c 0,6,7
 345 429 345 429 363 443.5 c 128,-1,8
 381 458 381 458 381 483 c 0,9,10
 381 516 381 516 354 528.5 c 128,-1,11
 327 541 327 541 273 539 c 1,12,-1
 273 617 l 1,13,14
 321 615 321 615 346 626.5 c 128,-1,15
 371 638 371 638 371 667 c 0,16,17
 371 690 371 690 354 702 c 128,-1,18
 337 714 337 714 312 714 c 256,19,20
 287 714 287 714 269 703 c 128,-1,21
 251 692 251 692 244 669 c 1,22,-1
 160 697 l 1,23,24
 176 740 176 740 217 763 c 128,-1,25
 258 786 258 786 317 786 c 0,26,27
 381 786 381 786 424 757 c 128,-1,28
 467 728 467 728 467 675 c 0,29,30
 467 644 467 644 451.5 620 c 128,-1,31
 436 596 436 596 411 583 c 1,32,33
 442 570 442 570 460 543.5 c 128,-1,34
 478 517 478 517 478 483 c 0,35,36
 478 423 478 423 430.5 390 c 128,-1,37
 383 357 383 357 313 357 c 0,38,0
 253 357 253 357 213 382 c 128,-1,1
EndSplineSet
EndChar
StartChar: guillemotright
Encoding: 187 187 281
Width: 632
GlyphClass: 1
Flags: W
LayerCount: 2
Fore
SplineSet
428 250 m 1,0,-1
 279 460 l 1,1,-1
 439 460 l 1,2,-1
 587 250 l 1,3,-1
 439 40 l 1,4,-1
 279 40 l 1,5,-1
 428 250 l 1,0,-1
193 250 m 1,6,-1
 44 460 l 1,7,-1
 204 460 l 1,8,-1
 352 250 l 1,9,-1
 204 40 l 1,10,-1
 44 40 l 1,11,-1
 193 250 l 1,6,-1
EndSplineSet
EndChar
StartChar: onequarter
Encoding: 188 188 242
Width: 632
GlyphClass: 3
Flags: W
LayerCount: 2
Fore
SplineSet
116 554 m 1,0,-1
 47 554 l 1,1,-1
 47 633 l 1,2,3
 92 632 92 632 110.5 639.5 c 128,-1,4
 129 647 129 647 137 668 c 1,5,-1
 205 668 l 1,6,-1
 205 359 l 1,7,-1
 116 359 l 1,8,-1
 116 554 l 1,0,-1
441 668 m 1,9,-1
 546 668 l 1,10,-1
 185 0 l 1,11,-1
 80 0 l 1,12,-1
 441 668 l 1,9,-1
469 59 m 1,13,-1
 314 59 l 1,14,-1
 314 129 l 1,15,-1
 461 309 l 1,16,-1
 552 309 l 1,17,-1
 552 133 l 1,18,-1
 598 133 l 1,19,-1
 598 59 l 1,20,-1
 552 59 l 1,21,-1
 552 0 l 1,22,-1
 469 0 l 1,23,-1
 469 59 l 1,13,-1
470 133 m 1,24,-1
 470 213 l 1,25,-1
 468 213 l 1,26,-1
 406 133 l 1,27,-1
 470 133 l 1,24,-1
EndSplineSet
Ligature2: "'frac' Diagonal Fractions in Latin lookup 7 subtable" one slash four
EndChar
StartChar: threequarters
Encoding: 190 190 243
Width: 632
GlyphClass: 3
Flags: W
LayerCount: 2
Fore
SplineSet
460 668 m 1,0,-1
 565 668 l 1,1,-1
 204 0 l 1,2,-1
 99 0 l 1,3,-1
 460 668 l 1,0,-1
488 59 m 1,4,-1
 333 59 l 1,5,-1
 333 129 l 1,6,-1
 480 309 l 1,7,-1
 571 309 l 1,8,-1
 571 133 l 1,9,-1
 617 133 l 1,10,-1
 617 59 l 1,11,-1
 571 59 l 1,12,-1
 571 0 l 1,13,-1
 488 0 l 1,14,-1
 488 59 l 1,4,-1
489 133 m 1,15,-1
 489 213 l 1,16,-1
 487 213 l 1,17,-1
 425 133 l 1,18,-1
 489 133 l 1,15,-1
63.5 376.5 m 128,-1,20
 31 393 31 393 15 426 c 1,21,-1
 96 455 l 1,22,23
 106 428 106 428 144 428 c 0,24,25
 162 428 162 428 172 436 c 128,-1,26
 182 444 182 444 182 456 c 0,27,28
 182 471 182 471 166.5 478.5 c 128,-1,29
 151 486 151 486 112 485 c 1,30,-1
 112 558 l 1,31,32
 149 557 149 557 163 565 c 128,-1,33
 177 573 177 573 177 588 c 0,34,35
 177 599 177 599 167 606 c 128,-1,36
 157 613 157 613 141 613 c 0,37,38
 126 613 126 613 114.5 607 c 128,-1,39
 103 601 103 601 98 589 c 1,40,-1
 19 618 l 1,41,42
 34 649 34 649 66.5 664.5 c 128,-1,43
 99 680 99 680 146 680 c 0,44,45
 199 680 199 680 231.5 657 c 128,-1,46
 264 634 264 634 264 597 c 0,47,48
 264 573 264 573 253 554.5 c 128,-1,49
 242 536 242 536 226 528 c 1,50,51
 248 520 248 520 261 501.5 c 128,-1,52
 274 483 274 483 274 460 c 0,53,54
 274 414 274 414 235.5 387 c 128,-1,55
 197 360 197 360 142 360 c 0,56,19
 96 360 96 360 63.5 376.5 c 128,-1,20
EndSplineSet
Ligature2: "'frac' Diagonal Fractions in Latin lookup 7 subtable" three slash four
EndChar
StartChar: questiondown
Encoding: 191 191 257
Width: 632
GlyphClass: 1
Flags: W
LayerCount: 2
Fore
SplineSet
189 -162 m 128,-1,1
 133 -142 133 -142 98.5 -102.5 c 128,-1,2
 64 -63 64 -63 64 -8 c 0,3,4
 64 51 64 51 97 87.5 c 128,-1,5
 130 124 130 124 196 159 c 0,6,7
 250 186 250 186 266.5 205.5 c 128,-1,8
 283 225 283 225 283 253 c 2,9,-1
 283 274 l 1,10,-1
 424 274 l 1,11,-1
 424 255 l 2,12,13
 424 186 424 186 396.5 147 c 128,-1,14
 369 108 369 108 305 81 c 0,15,16
 256 61 256 61 233 40.5 c 128,-1,17
 210 20 210 20 210 -6 c 0,18,19
 210 -34 210 -34 238 -52 c 128,-1,20
 266 -70 266 -70 312 -70 c 0,21,22
 359 -70 359 -70 394 -47.5 c 128,-1,23
 429 -25 429 -25 443 12 c 1,24,-1
 570 -33 l 1,25,26
 545 -103 545 -103 476 -142.5 c 128,-1,27
 407 -182 407 -182 310 -182 c 0,28,0
 245 -182 245 -182 189 -162 c 128,-1,1
287 354 m 128,-1,30
 260 380 260 380 260 418 c 256,31,32
 260 456 260 456 287 483 c 128,-1,33
 314 510 314 510 351 510 c 0,34,35
 389 510 389 510 416 483 c 128,-1,36
 443 456 443 456 443 418 c 256,37,38
 443 380 443 380 416 354 c 128,-1,39
 389 328 389 328 351 328 c 0,40,29
 314 328 314 328 287 354 c 128,-1,30
EndSplineSet
EndChar
StartChar: Aring
Encoding: 197 197 10
Width: 632
GlyphClass: 2
Flags: W
AnchorPoint: "Anchor-2" 600 10 basechar 0
AnchorPoint: "Anchor-1" 316 858 basechar 0
AnchorPoint: "Anchor-0" 316 0 basechar 0
LayerCount: 2
Fore
SplineSet
199.5 680 m 128,-1,1
 188 704 188 704 188 731 c 0,2,3
 188 784 188 784 225 821 c 128,-1,4
 262 858 262 858 315 858 c 0,5,6
 350 858 350 858 379.5 841 c 128,-1,7
 409 824 409 824 426.5 795 c 128,-1,8
 444 766 444 766 444 731 c 0,9,10
 444 704 444 704 433 680 c 128,-1,11
 422 656 422 656 402 639 c 1,12,-1
 600 0 l 1,13,-1
 465 0 l 1,14,-1
 428 126 l 1,15,-1
 198 126 l 1,16,-1
 161 0 l 1,17,-1
 32 0 l 1,18,-1
 230 638 l 1,19,0
 211 656 211 656 199.5 680 c 128,-1,1
396 243 m 1,20,-1
 315 520 l 1,21,-1
 311 520 l 1,22,-1
 229 243 l 1,23,-1
 396 243 l 1,20,-1
350 697 m 128,-1,25
 364 711 364 711 364 731 c 256,26,27
 364 751 364 751 350 765 c 128,-1,28
 336 779 336 779 316 779 c 0,29,30
 297 779 297 779 282.5 765 c 128,-1,31
 268 751 268 751 268 731 c 256,32,33
 268 711 268 711 282 697 c 128,-1,34
 296 683 296 683 316 683 c 256,35,24
 336 683 336 683 350 697 c 128,-1,25
EndSplineSet
EndChar
StartChar: germandbls
Encoding: 223 223 193
Width: 632
GlyphClass: 1
Flags: W
LayerCount: 2
Fore
SplineSet
301 -9 m 1,1,-1
 264 112 l 1,2,3
 296 103 296 103 335 103 c 0,4,5
 393 103 393 103 429 129 c 128,-1,6
 465 155 465 155 465 210 c 0,7,8
 465 271 465 271 420 303.5 c 128,-1,9
 375 336 375 336 302 336 c 2,10,-1
 289 336 l 1,11,-1
 289 447 l 1,12,13
 345 445 345 445 371.5 462.5 c 128,-1,14
 398 480 398 480 398 512 c 0,15,16
 398 540 398 540 374.5 557.5 c 128,-1,17
 351 575 351 575 306 575 c 0,18,19
 249 575 249 575 225 546.5 c 128,-1,20
 201 518 201 518 201 455 c 2,21,-1
 201 0 l 1,22,-1
 60 0 l 1,23,-1
 60 461 l 2,24,25
 60 576 60 576 122.5 628 c 128,-1,26
 185 680 185 680 304 680 c 0,27,28
 398 680 398 680 457 636.5 c 128,-1,29
 516 593 516 593 516 516 c 0,30,31
 516 480 516 480 500.5 450.5 c 128,-1,32
 485 421 485 421 462 404 c 1,33,34
 527 387 527 387 567.5 334 c 128,-1,35
 608 281 608 281 608 207 c 0,36,37
 608 95 608 95 539.5 41 c 128,-1,38
 471 -13 471 -13 360 -13 c 0,39,0
 328 -13 328 -13 301 -9 c 1,1,-1
EndSplineSet
EndChar
StartChar: ae
Encoding: 230 230 122
Width: 632
GlyphClass: 2
Flags: W
AnchorPoint: "Anchor-1" 315 496 basechar 0
AnchorPoint: "Anchor-0" 315 0 basechar 0
LayerCount: 2
Fore
SplineSet
53 27 m 128,-1,1
 15 66 15 66 15 131 c 0,2,3
 15 210 15 210 72.5 249.5 c 128,-1,4
 130 289 130 289 255 295 c 1,5,-1
 255 326 l 2,6,7
 255 415 255 415 192 415 c 0,8,9
 166 415 166 415 148.5 399 c 128,-1,10
 131 383 131 383 124 352 c 1,11,-1
 37 394 l 1,12,13
 56 446 56 446 97.5 478 c 128,-1,14
 139 510 139 510 198 510 c 0,15,16
 243 510 243 510 273 493.5 c 128,-1,17
 303 477 303 477 320 442 c 1,18,19
 364 510 364 510 446 510 c 0,20,21
 529 510 529 510 574.5 438 c 128,-1,22
 620 366 620 366 620 247 c 0,23,24
 620 226 620 226 619 215 c 1,25,-1
 346 215 l 1,26,27
 350 150 350 150 376 115.5 c 128,-1,28
 402 81 402 81 441 81 c 0,29,30
 492 81 492 81 516 131 c 1,31,-1
 601 99 l 1,32,33
 572 45 572 45 530 16.5 c 128,-1,34
 488 -12 488 -12 439 -12 c 0,35,36
 339 -12 339 -12 292 73 c 1,37,38
 250 -12 250 -12 153 -12 c 0,39,0
 91 -12 91 -12 53 27 c 128,-1,1
255 200 m 2,41,-1
 255 215 l 1,42,43
 177 211 177 211 146.5 193.5 c 128,-1,44
 116 176 116 176 116 139 c 0,45,46
 116 113 116 113 131.5 97 c 128,-1,47
 147 81 147 81 173 81 c 0,48,40
 254 81 254 81 255 200 c 2,41,-1
492 381.5 m 128,-1,50
 472 413 472 413 435 413 c 0,51,52
 401 413 401 413 377.5 384 c 128,-1,53
 354 355 354 355 347 295 c 1,54,-1
 512 295 l 1,55,49
 512 350 512 350 492 381.5 c 128,-1,50
EndSplineSet
EndChar
StartChar: ccedilla
Encoding: 231 231 127
Width: 632
GlyphClass: 2
Flags: W
AnchorPoint: "Anchor-1" 350 496 basechar 0
LayerCount: 2
Fore
SplineSet
245 -171 m 1,1,-1
 260 -125 l 1,2,3
 270 -131 270 -131 287.5 -134.5 c 128,-1,4
 305 -138 305 -138 323 -138 c 0,5,6
 343 -138 343 -138 355 -131 c 128,-1,7
 367 -124 367 -124 367 -110 c 0,8,9
 367 -97 367 -97 356.5 -90 c 128,-1,10
 346 -83 346 -83 328 -83 c 0,11,12
 323 -83 323 -83 309.5 -86 c 128,-1,13
 296 -89 296 -89 292 -89 c 0,14,15
 283 -89 283 -89 278 -84 c 128,-1,16
 273 -79 273 -79 273 -71 c 0,17,18
 273 -66 273 -66 277 -58 c 2,19,-1
 307 -11 l 1,20,21
 196 -1 196 -1 136.5 69 c 128,-1,22
 77 139 77 139 77 250 c 0,23,24
 77 326 77 326 110.5 385 c 128,-1,25
 144 444 144 444 204 477 c 128,-1,26
 264 510 264 510 340 510 c 0,27,28
 419 510 419 510 480.5 477.5 c 128,-1,29
 542 445 542 445 572 382 c 1,30,-1
 455 339 l 1,31,32
 442 369 442 369 415 385 c 128,-1,33
 388 401 388 401 350 401 c 0,34,35
 296 401 296 401 258 364 c 128,-1,36
 220 327 220 327 220 250 c 0,37,38
 220 172 220 172 257.5 134.5 c 128,-1,39
 295 97 295 97 349 97 c 0,40,41
 385 97 385 97 414 110.5 c 128,-1,42
 443 124 443 124 457 148 c 1,43,-1
 571 107 l 1,44,45
 542 55 542 55 486.5 24 c 128,-1,46
 431 -7 431 -7 361 -11 c 1,47,-1
 337 -49 l 1,48,49
 351 -46 351 -46 370 -46 c 0,50,51
 403 -46 403 -46 428.5 -61 c 128,-1,52
 454 -76 454 -76 454 -106 c 0,53,54
 454 -145 454 -145 418.5 -165.5 c 128,-1,55
 383 -186 383 -186 331 -186 c 0,56,0
 283 -186 283 -186 245 -171 c 1,1,-1
EndSplineSet
EndChar
StartChar: eth
Encoding: 240 240 132
Width: 632
GlyphClass: 1
Flags: W
LayerCount: 2
Fore
SplineSet
173.5 16 m 128,-1,1
 116 44 116 44 82 96.5 c 128,-1,2
 48 149 48 149 48 221 c 0,3,4
 48 289 48 289 81 342.5 c 128,-1,5
 114 396 114 396 169.5 425.5 c 128,-1,6
 225 455 225 455 289 455 c 0,7,8
 334 455 334 455 371 439.5 c 128,-1,9
 408 424 408 424 433 396 c 1,10,11
 432 501 432 501 369 557 c 1,12,-1
 308 496 l 1,13,-1
 263 541 l 1,14,-1
 314 592 l 1,15,16
 253 621 253 621 186 618 c 1,17,-1
 186 731 l 1,18,19
 314 732 314 732 401 679 c 1,20,-1
 455 733 l 1,21,-1
 500 688 l 1,22,-1
 454 643 l 1,23,24
 510 598 510 598 543.5 515 c 128,-1,25
 577 432 577 432 577 322 c 0,26,27
 577 171 577 171 509.5 79.5 c 128,-1,28
 442 -12 442 -12 302 -12 c 0,29,0
 231 -12 231 -12 173.5 16 c 128,-1,1
396.5 127.5 m 128,-1,31
 429 162 429 162 429 222 c 0,32,33
 429 280 429 280 396 315 c 128,-1,34
 363 350 363 350 311 350 c 256,35,36
 259 350 259 350 226 315.5 c 128,-1,37
 193 281 193 281 193 222 c 0,38,39
 193 162 193 162 226 127.5 c 128,-1,40
 259 93 259 93 312 93 c 0,41,30
 364 93 364 93 396.5 127.5 c 128,-1,31
EndSplineSet
EndChar
StartChar: divide
Encoding: 247 247 314
Width: 632
GlyphClass: 1
Flags: W
LayerCount: 2
Fore
SplineSet
60 307 m 1,0,-1
 572 307 l 1,1,-1
 572 189 l 1,2,-1
 60 189 l 1,3,-1
 60 307 l 1,0,-1
262.5 15.5 m 128,-1,5
 240 38 240 38 240 70 c 0,6,7
 240 101 240 101 262.5 123.5 c 128,-1,8
 285 146 285 146 316 146 c 256,9,10
 347 146 347 146 369.5 123.5 c 128,-1,11
 392 101 392 101 392 70 c 0,12,13
 392 38 392 38 370 15.5 c 128,-1,14
 348 -7 348 -7 316 -7 c 0,15,4
 285 -7 285 -7 262.5 15.5 c 128,-1,5
262.5 372.5 m 128,-1,17
 240 395 240 395 240 427 c 256,18,19
 240 459 240 459 262.5 481 c 128,-1,20
 285 503 285 503 316 503 c 0,21,22
 348 503 348 503 370 481 c 128,-1,23
 392 459 392 459 392 427 c 256,24,25
 392 395 392 395 370 372.5 c 128,-1,26
 348 350 348 350 316 350 c 0,27,16
 285 350 285 350 262.5 372.5 c 128,-1,17
EndSplineSet
EndChar
StartChar: dcroat
Encoding: 273 273 131
Width: 632
GlyphClass: 1
Flags: W
LayerCount: 2
Fore
SplineSet
149.5 20.5 m 128,-1,1
 99 53 99 53 71 112.5 c 128,-1,2
 43 172 43 172 43 252 c 256,3,4
 43 332 43 332 71 390 c 128,-1,5
 99 448 99 448 149.5 479 c 128,-1,6
 200 510 200 510 266 510 c 0,7,8
 311 510 311 510 354.5 487.5 c 128,-1,9
 398 465 398 465 422 425 c 1,10,-1
 422 548 l 1,11,-1
 279 548 l 1,12,-1
 279 619 l 1,13,-1
 422 619 l 1,14,-1
 422 708 l 1,15,-1
 563 708 l 1,16,-1
 563 619 l 1,17,-1
 620 619 l 1,18,-1
 620 548 l 1,19,-1
 563 548 l 1,20,-1
 563 192 l 2,21,22
 563 85 563 85 580 0 c 1,23,-1
 446 0 l 1,24,-1
 426 68 l 1,25,26
 395 28 395 28 353 8 c 128,-1,27
 311 -12 311 -12 266 -12 c 0,28,0
 200 -12 200 -12 149.5 20.5 c 128,-1,1
395.5 135.5 m 128,-1,30
 429 173 429 173 429 249 c 0,31,32
 429 324 429 324 395.5 362.5 c 128,-1,33
 362 401 362 401 309 401 c 256,34,35
 256 401 256 401 221.5 361.5 c 128,-1,36
 187 322 187 322 187 252 c 0,37,38
 187 181 187 181 221.5 139.5 c 128,-1,39
 256 98 256 98 309 98 c 256,40,29
 362 98 362 98 395.5 135.5 c 128,-1,30
EndSplineSet
EndChar
StartChar: Eogonek
Encoding: 280 280 31
Width: 632
GlyphClass: 2
Flags: W
AnchorPoint: "Anchor-1" 289 668 basechar 0
LayerCount: 2
Fore
SplineSet
99 668 m 1,0,-1
 555 668 l 1,1,-1
 555 540 l 1,2,-1
 244 540 l 1,3,-1
 244 407 l 1,4,-1
 440 407 l 1,5,-1
 440 280 l 1,6,-1
 244 280 l 1,7,-1
 244 128 l 1,8,-1
 559 128 l 1,9,-1
 559 0 l 1,10,11
 526 -4 526 -4 495.5 -24.5 c 128,-1,12
 465 -45 465 -45 465 -68 c 0,13,14
 465 -85 465 -85 477.5 -93.5 c 128,-1,15
 490 -102 490 -102 509 -102 c 0,16,17
 530 -102 530 -102 559 -93 c 1,18,-1
 559 -165 l 1,19,20
 548 -169 548 -169 525 -171.5 c 128,-1,21
 502 -174 502 -174 484 -174 c 0,22,23
 412 -174 412 -174 380 -147.5 c 128,-1,24
 348 -121 348 -121 348 -86 c 0,25,26
 348 -58 348 -58 365.5 -36 c 128,-1,27
 383 -14 383 -14 413 0 c 1,28,-1
 99 0 l 1,29,-1
 99 668 l 1,0,-1
EndSplineSet
EndChar
StartChar: Hbar
Encoding: 294 294 38
Width: 632
GlyphClass: 1
Flags: W
LayerCount: 2
Fore
SplineSet
54 502 m 1,0,-1
 7 502 l 1,1,-1
 7 587 l 1,2,-1
 54 587 l 1,3,-1
 54 668 l 1,4,-1
 199 668 l 1,5,-1
 199 587 l 1,6,-1
 433 587 l 1,7,-1
 433 668 l 1,8,-1
 578 668 l 1,9,-1
 578 587 l 1,10,-1
 625 587 l 1,11,-1
 625 502 l 1,12,-1
 578 502 l 1,13,-1
 578 0 l 1,14,-1
 433 0 l 1,15,-1
 433 280 l 1,16,-1
 199 280 l 1,17,-1
 199 0 l 1,18,-1
 54 0 l 1,19,-1
 54 502 l 1,0,-1
433 407 m 1,20,-1
 433 502 l 1,21,-1
 199 502 l 1,22,-1
 199 407 l 1,23,-1
 433 407 l 1,20,-1
EndSplineSet
EndChar
StartChar: hbar
Encoding: 295 295 148
Width: 632
GlyphClass: 1
Flags: W
LayerCount: 2
Fore
SplineSet
84 548 m 1,0,-1
 27 548 l 1,1,-1
 27 619 l 1,2,-1
 84 619 l 1,3,-1
 84 708 l 1,4,-1
 225 708 l 1,5,-1
 225 619 l 1,6,-1
 368 619 l 1,7,-1
 368 548 l 1,8,-1
 225 548 l 1,9,-1
 225 429 l 1,10,11
 244 460 244 460 286 485 c 128,-1,12
 328 510 328 510 382 510 c 0,13,14
 471 510 471 510 512.5 461.5 c 128,-1,15
 554 413 554 413 554 319 c 2,16,-1
 554 0 l 1,17,-1
 413 0 l 1,18,-1
 413 288 l 2,19,20
 413 345 413 345 392.5 373 c 128,-1,21
 372 401 372 401 328 401 c 0,22,23
 277 401 277 401 251 364 c 128,-1,24
 225 327 225 327 225 257 c 2,25,-1
 225 0 l 1,26,-1
 84 0 l 1,27,-1
 84 548 l 1,0,-1
EndSplineSet
EndChar
StartChar: iogonek
Encoding: 303 303 156
Width: 632
GlyphClass: 2
Flags: W
AnchorPoint: "Anchor-1" 329 751 basechar 0
LayerCount: 2
Fore
SplineSet
102 107 m 1,0,-1
 268 107 l 1,1,-1
 268 389 l 1,2,-1
 128 389 l 1,3,-1
 128 496 l 1,4,-1
 409 496 l 1,5,-1
 409 107 l 1,6,-1
 575 107 l 1,7,-1
 575 0 l 1,8,9
 529 -10 529 -10 505 -29 c 128,-1,10
 481 -48 481 -48 481 -69 c 0,11,12
 481 -86 481 -86 494.5 -94 c 128,-1,13
 508 -102 508 -102 528 -102 c 256,14,15
 548 -102 548 -102 575 -93 c 1,16,-1
 575 -165 l 1,17,18
 564 -169 564 -169 541.5 -171.5 c 128,-1,19
 519 -174 519 -174 501 -174 c 0,20,21
 429 -174 429 -174 397 -147.5 c 128,-1,22
 365 -121 365 -121 365 -86 c 0,23,24
 365 -33 365 -33 423 0 c 1,25,-1
 102 0 l 1,26,-1
 102 107 l 1,0,-1
269 606 m 128,-1,28
 244 631 244 631 244 666 c 256,29,30
 244 701 244 701 269 726 c 128,-1,31
 294 751 294 751 329 751 c 256,32,33
 364 751 364 751 389 726 c 128,-1,34
 414 701 414 701 414 666 c 256,35,36
 414 631 414 631 389 606 c 128,-1,37
 364 581 364 581 329 581 c 256,38,27
 294 581 294 581 269 606 c 128,-1,28
EndSplineSet
EndChar
StartChar: ij
Encoding: 307 307 157
Width: 632
GlyphClass: 1
Flags: W
LayerCount: 2
Fore
SplineSet
298 -50 m 1,0,-1
 343 -50 l 2,1,2
 375 -50 375 -50 390 -45.5 c 128,-1,3
 405 -41 405 -41 410.5 -29.5 c 128,-1,4
 416 -18 416 -18 416 6 c 2,5,-1
 416 389 l 1,6,-1
 348 389 l 1,7,-1
 348 496 l 1,8,-1
 557 496 l 1,9,-1
 557 -7 l 2,10,11
 557 -67 557 -67 538 -100.5 c 128,-1,12
 519 -134 519 -134 478.5 -147.5 c 128,-1,13
 438 -161 438 -161 367 -161 c 2,14,-1
 298 -161 l 1,15,-1
 298 -50 l 1,0,-1
108 389 m 1,16,-1
 40 389 l 1,17,-1
 40 496 l 1,18,-1
 248 496 l 1,19,-1
 248 0 l 1,20,-1
 108 0 l 1,21,-1
 108 389 l 1,16,-1
108 606 m 128,-1,23
 83 631 83 631 83 666 c 256,24,25
 83 701 83 701 108 726 c 128,-1,26
 133 751 133 751 168 751 c 256,27,28
 203 751 203 751 228 726 c 128,-1,29
 253 701 253 701 253 666 c 256,30,31
 253 631 253 631 228 606 c 128,-1,32
 203 581 203 581 168 581 c 256,33,22
 133 581 133 581 108 606 c 128,-1,23
416.5 606 m 128,-1,35
 392 631 392 631 392 666 c 256,36,37
 392 701 392 701 416.5 726 c 128,-1,38
 441 751 441 751 476 751 c 256,39,40
 511 751 511 751 536 726 c 128,-1,41
 561 701 561 701 561 666 c 256,42,43
 561 631 561 631 536 606 c 128,-1,44
 511 581 511 581 476 581 c 256,45,34
 441 581 441 581 416.5 606 c 128,-1,35
EndSplineSet
EndChar
StartChar: Lslash
Encoding: 321 321 55
Width: 632
GlyphClass: 1
Flags: W
LayerCount: 2
Fore
SplineSet
111 232 m 1,0,-1
 30 184 l 1,1,-1
 30 296 l 1,2,-1
 111 344 l 1,3,-1
 111 668 l 1,4,-1
 256 668 l 1,5,-1
 256 431 l 1,6,-1
 418 527 l 1,7,-1
 418 415 l 1,8,-1
 256 319 l 1,9,-1
 256 128 l 1,10,-1
 584 128 l 1,11,-1
 584 0 l 1,12,-1
 111 0 l 1,13,-1
 111 232 l 1,0,-1
EndSplineSet
EndChar
StartChar: lslash
Encoding: 322 322 166
Width: 632
GlyphClass: 1
Flags: W
LayerCount: 2
Fore
SplineSet
257 10.5 m 128,-1,1
 224 21 224 21 209.5 49.5 c 128,-1,2
 195 78 195 78 195 134 c 2,3,-1
 195 255 l 1,4,-1
 138 223 l 1,5,-1
 138 329 l 1,6,-1
 195 362 l 1,7,-1
 195 601 l 1,8,-1
 80 601 l 1,9,-1
 80 708 l 1,10,-1
 336 708 l 1,11,-1
 336 439 l 1,12,-1
 455 505 l 1,13,-1
 455 399 l 1,14,-1
 336 332 l 1,15,-1
 336 173 l 2,16,17
 336 146 336 146 340.5 133.5 c 128,-1,18
 345 121 345 121 358 116 c 128,-1,19
 371 111 371 111 399 111 c 2,20,-1
 572 111 l 1,21,-1
 572 0 l 1,22,-1
 351 0 l 2,23,0
 290 0 290 0 257 10.5 c 128,-1,1
EndSplineSet
EndChar
StartChar: scedilla
Encoding: 351 351 191
Width: 632
GlyphClass: 2
Flags: W
AnchorPoint: "Anchor-1" 320 496 basechar 0
LayerCount: 2
Fore
SplineSet
226 -171 m 1,1,-1
 241 -125 l 1,2,3
 251 -131 251 -131 268.5 -134.5 c 128,-1,4
 286 -138 286 -138 304 -138 c 0,5,6
 324 -138 324 -138 336 -131 c 128,-1,7
 348 -124 348 -124 348 -110 c 0,8,9
 348 -97 348 -97 337.5 -90 c 128,-1,10
 327 -83 327 -83 309 -83 c 0,11,12
 304 -83 304 -83 290.5 -86 c 128,-1,13
 277 -89 277 -89 273 -89 c 0,14,15
 264 -89 264 -89 259 -84 c 128,-1,16
 254 -79 254 -79 254 -71 c 0,17,18
 254 -66 254 -66 258 -58 c 2,19,-1
 288 -11 l 1,20,21
 211 -5 211 -5 155.5 27 c 128,-1,22
 100 59 100 59 76 114 c 1,23,-1
 195 158 l 1,24,25
 205 126 205 126 239.5 108 c 128,-1,26
 274 90 274 90 323 90 c 0,27,28
 366 90 366 90 394.5 104 c 128,-1,29
 423 118 423 118 423 143 c 0,30,31
 423 163 423 163 404.5 174.5 c 128,-1,32
 386 186 386 186 341 194 c 2,33,-1
 253 211 l 2,34,35
 178 224 178 224 136 259.5 c 128,-1,36
 94 295 94 295 94 352 c 0,37,38
 94 402 94 402 124.5 437.5 c 128,-1,39
 155 473 155 473 206.5 491.5 c 128,-1,40
 258 510 258 510 319 510 c 0,41,42
 397 510 397 510 456 482.5 c 128,-1,43
 515 455 515 455 541 397 c 1,44,-1
 422 353 l 1,45,46
 411 381 411 381 384 395 c 128,-1,47
 357 409 357 409 317 409 c 0,48,49
 273 409 273 409 250 395.5 c 128,-1,50
 227 382 227 382 227 360 c 0,51,52
 227 342 227 342 242 332 c 128,-1,53
 257 322 257 322 293 315 c 2,54,-1
 385 298 l 2,55,56
 477 281 477 281 516.5 248 c 128,-1,57
 556 215 556 215 556 153 c 0,58,59
 556 77 556 77 496.5 34.5 c 128,-1,60
 437 -8 437 -8 342 -11 c 1,61,-1
 318 -49 l 1,62,63
 332 -46 332 -46 351 -46 c 0,64,65
 384 -46 384 -46 409.5 -61 c 128,-1,66
 435 -76 435 -76 435 -106 c 0,67,68
 435 -145 435 -145 399.5 -165.5 c 128,-1,69
 364 -186 364 -186 312 -186 c 0,70,0
 264 -186 264 -186 226 -171 c 1,1,-1
EndSplineSet
Substitution2: "'locl' Localized Forms in Latin lookup 4 subtable" uni0219
AlternateSubs2: "'aalt' Access All Alternates in Latin lookup 0 subtable" uni0219
EndChar
StartChar: uni0162
Encoding: 354 354 85
Width: 632
GlyphClass: 2
Flags: W
AnchorPoint: "Anchor-1" 316 668 basechar 0
LayerCount: 2
Fore
SplineSet
243 540 m 1,0,-1
 52 540 l 1,1,-1
 52 668 l 1,2,-1
 580 668 l 1,3,-1
 580 540 l 1,4,-1
 389 540 l 1,5,-1
 389 0 l 1,6,-1
 344 0 l 1,7,-1
 313 -49 l 1,8,9
 327 -46 327 -46 347 -46 c 0,10,11
 380 -46 380 -46 405.5 -61 c 128,-1,12
 431 -76 431 -76 431 -106 c 0,13,14
 431 -145 431 -145 395 -165.5 c 128,-1,15
 359 -186 359 -186 307 -186 c 0,16,17
 259 -186 259 -186 221 -171 c 1,18,-1
 237 -125 l 1,19,20
 247 -131 247 -131 264 -134.5 c 128,-1,21
 281 -138 281 -138 299 -138 c 0,22,23
 319 -138 319 -138 331 -131 c 128,-1,24
 343 -124 343 -124 343 -110 c 0,25,26
 343 -97 343 -97 332.5 -90 c 128,-1,27
 322 -83 322 -83 305 -83 c 0,28,29
 299 -83 299 -83 285.5 -86 c 128,-1,30
 272 -89 272 -89 268 -89 c 0,31,32
 259 -89 259 -89 254.5 -84 c 128,-1,33
 250 -79 250 -79 250 -71 c 0,34,35
 250 -66 250 -66 254 -58 c 2,36,-1
 290 0 l 1,37,-1
 243 0 l 1,38,-1
 243 540 l 1,0,-1
EndSplineSet
Substitution2: "'locl' Localized Forms in Latin lookup 4 subtable" uni021A
AlternateSubs2: "'aalt' Access All Alternates in Latin lookup 0 subtable" uni021A
EndChar
StartChar: uni0163
Encoding: 355 355 196
Width: 632
GlyphClass: 2
Flags: W
AnchorPoint: "Anchor-3" 369 551 basechar 0
AnchorPoint: "Anchor-1" 287 496 basechar 0
LayerCount: 2
Fore
SplineSet
229 -171 m 1,1,-1
 244 -125 l 1,2,3
 254 -131 254 -131 271.5 -134.5 c 128,-1,4
 289 -138 289 -138 307 -138 c 0,5,6
 327 -138 327 -138 339 -131 c 128,-1,7
 351 -124 351 -124 351 -110 c 0,8,9
 351 -97 351 -97 340.5 -90 c 128,-1,10
 330 -83 330 -83 312 -83 c 0,11,12
 306 -83 306 -83 293.5 -86 c 128,-1,13
 281 -89 281 -89 276 -89 c 0,14,15
 267 -89 267 -89 262 -84 c 128,-1,16
 257 -79 257 -79 257 -71 c 0,17,18
 257 -66 257 -66 261 -58 c 2,19,-1
 299 3 l 1,20,21
 242 9 242 9 220 38 c 128,-1,22
 198 67 198 67 198 137 c 2,23,-1
 198 389 l 1,24,-1
 97 389 l 1,25,-1
 97 496 l 1,26,-1
 198 496 l 1,27,-1
 198 620 l 1,28,-1
 339 620 l 1,29,-1
 339 496 l 1,30,-1
 542 496 l 1,31,-1
 542 389 l 1,32,-1
 339 389 l 1,33,-1
 339 169 l 2,34,35
 339 134 339 134 352 122.5 c 128,-1,36
 365 111 365 111 402 111 c 2,37,-1
 492 111 l 1,38,-1
 492 0 l 1,39,-1
 352 0 l 1,40,-1
 321 -49 l 1,41,42
 335 -46 335 -46 354 -46 c 0,43,44
 387 -46 387 -46 412.5 -61 c 128,-1,45
 438 -76 438 -76 438 -106 c 0,46,47
 438 -145 438 -145 402.5 -165.5 c 128,-1,48
 367 -186 367 -186 315 -186 c 0,49,0
 267 -186 267 -186 229 -171 c 1,1,-1
EndSplineSet
Substitution2: "'locl' Localized Forms in Latin lookup 4 subtable" uni021B
AlternateSubs2: "'aalt' Access All Alternates in Latin lookup 0 subtable" uni021B
EndChar
StartChar: Uring
Encoding: 366 366 95
Width: 632
GlyphClass: 2
Flags: W
AnchorPoint: "Anchor-3" 630 668 basechar 0
AnchorPoint: "Anchor-1" 316 914 basechar 0
LayerCount: 2
Fore
SplineSet
118.5 54 m 128,-1,1
 58 120 58 120 58 261 c 2,2,-1
 58 668 l 1,3,-1
 204 668 l 1,4,-1
 204 242 l 2,5,6
 204 175 204 175 229 140.5 c 128,-1,7
 254 106 254 106 317 106 c 256,8,9
 380 106 380 106 404 140 c 128,-1,10
 428 174 428 174 428 242 c 2,11,-1
 428 668 l 1,12,-1
 574 668 l 1,13,-1
 574 261 l 2,14,15
 574 120 574 120 513.5 54 c 128,-1,16
 453 -12 453 -12 317 -12 c 0,17,0
 179 -12 179 -12 118.5 54 c 128,-1,1
251.5 675.5 m 128,-1,19
 222 693 222 693 205 722.5 c 128,-1,20
 188 752 188 752 188 787 c 0,21,22
 188 840 188 840 225.5 877 c 128,-1,23
 263 914 263 914 316 914 c 256,24,25
 369 914 369 914 406.5 877 c 128,-1,26
 444 840 444 840 444 787 c 0,27,28
 444 752 444 752 427 722.5 c 128,-1,29
 410 693 410 693 380.5 675.5 c 128,-1,30
 351 658 351 658 316 658 c 256,31,18
 281 658 281 658 251.5 675.5 c 128,-1,19
349.5 753 m 128,-1,33
 363 767 363 767 363 787 c 256,34,35
 363 807 363 807 349.5 821 c 128,-1,36
 336 835 336 835 315 835 c 0,37,38
 295 835 295 835 281 821 c 128,-1,39
 267 807 267 807 267 787 c 256,40,41
 267 767 267 767 281 753 c 128,-1,42
 295 739 295 739 315 739 c 0,43,32
 336 739 336 739 349.5 753 c 128,-1,33
EndSplineSet
EndChar
StartChar: Uogonek
Encoding: 370 370 94
Width: 632
GlyphClass: 2
Flags: W
AnchorPoint: "Anchor-3" 630 668 basechar 0
AnchorPoint: "Anchor-1" 316 668 basechar 0
LayerCount: 2
Fore
SplineSet
330.5 -147.5 m 128,-1,1
 298 -121 298 -121 298 -84 c 0,2,3
 298 -42 298 -42 329 -11 c 1,4,5
 196 -13 196 -13 127 48 c 128,-1,6
 58 109 58 109 58 261 c 2,7,-1
 58 668 l 1,8,-1
 204 668 l 1,9,-1
 204 242 l 2,10,11
 204 175 204 175 229 140.5 c 128,-1,12
 254 106 254 106 317 106 c 256,13,14
 380 106 380 106 404 140 c 128,-1,15
 428 174 428 174 428 242 c 2,16,-1
 428 668 l 1,17,-1
 574 668 l 1,18,-1
 574 261 l 2,19,20
 574 170 574 170 548.5 111 c 128,-1,21
 523 52 523 52 469 19 c 0,22,23
 444 4 444 4 429.5 -16.5 c 128,-1,24
 415 -37 415 -37 415 -61 c 0,25,26
 415 -82 415 -82 428.5 -92 c 128,-1,27
 442 -102 442 -102 462 -102 c 256,28,29
 482 -102 482 -102 509 -93 c 1,30,-1
 509 -164 l 1,31,32
 498 -168 498 -168 475.5 -171 c 128,-1,33
 453 -174 453 -174 434 -174 c 0,34,0
 363 -174 363 -174 330.5 -147.5 c 128,-1,1
EndSplineSet
EndChar
StartChar: uogonek
Encoding: 371 371 205
Width: 632
GlyphClass: 2
Flags: W
AnchorPoint: "Anchor-3" 576 496 basechar 0
AnchorPoint: "Anchor-1" 315 496 basechar 0
LayerCount: 2
Fore
SplineSet
123 39 m 128,-1,1
 83 90 83 90 83 194 c 2,2,-1
 83 496 l 1,3,-1
 224 496 l 1,4,-1
 224 230 l 2,5,6
 224 186 224 186 229 158.5 c 128,-1,7
 234 131 234 131 252.5 114 c 128,-1,8
 271 97 271 97 307 97 c 0,9,10
 358 97 358 97 381.5 129.5 c 128,-1,11
 405 162 405 162 405 233 c 2,12,-1
 405 496 l 1,13,-1
 545 496 l 1,14,-1
 545 0 l 1,15,16
 499 -10 499 -10 475 -29 c 128,-1,17
 451 -48 451 -48 451 -69 c 0,18,19
 451 -86 451 -86 465 -94 c 128,-1,20
 479 -102 479 -102 498 -102 c 0,21,22
 518 -102 518 -102 545 -93 c 1,23,-1
 545 -165 l 1,24,25
 534 -169 534 -169 511.5 -171.5 c 128,-1,26
 489 -174 489 -174 471 -174 c 0,27,28
 399 -174 399 -174 367 -147.5 c 128,-1,29
 335 -121 335 -121 335 -86 c 256,30,31
 335 -51 335 -51 358.5 -27.5 c 128,-1,32
 382 -4 382 -4 421 14 c 1,33,-1
 405 72 l 1,34,35
 382 32 382 32 347.5 10 c 128,-1,36
 313 -12 313 -12 258 -12 c 0,37,0
 163 -12 163 -12 123 39 c 128,-1,1
EndSplineSet
EndChar
StartChar: acutecomb
Encoding: 769 769 342
Width: 0
GlyphClass: 4
Flags: W
AnchorPoint: "Anchor-5" 266 723 basemark 0
AnchorPoint: "Anchor-5" 266 496 mark 0
AnchorPoint: "Anchor-1" 266 496 mark 0
LayerCount: 2
Fore
SplineSet
337.5 715 m 128,-1,1
 349 723 349 723 365 723 c 0,2,3
 388 723 388 723 402 708.5 c 128,-1,4
 416 694 416 694 416 674 c 0,5,6
 416 658 416 658 409 646 c 128,-1,7
 402 634 402 634 379 617 c 2,8,-1
 321 574 l 1,9,-1
 216 574 l 1,10,-1
 310 689 l 2,11,0
 326 707 326 707 337.5 715 c 128,-1,1
EndSplineSet
Substitution2: "Single Substitution lookup 12 subtable" acutecomb.case
Substitution2: "'case' Case-Sensitive Forms in Latin lookup 9 subtable" acutecomb.case
AlternateSubs2: "'aalt' Access All Alternates in Latin lookup 0 subtable" acutecomb.case
EndChar
StartChar: uni0306
Encoding: 774 774 351
Width: 0
GlyphClass: 4
Flags: W
AnchorPoint: "Anchor-5" 316 686 basemark 0
AnchorPoint: "Anchor-5" 316 496 mark 0
AnchorPoint: "Anchor-1" 316 496 mark 0
LayerCount: 2
Fore
SplineSet
220 597 m 128,-1,1
 183 631 183 631 174 685 c 1,2,-1
 251 685 l 1,3,4
 256 667 256 667 272.5 653.5 c 128,-1,5
 289 640 289 640 315 640 c 0,6,7
 342 640 342 640 359.5 653.5 c 128,-1,8
 377 667 377 667 381 685 c 1,9,-1
 458 685 l 1,10,11
 449 631 449 631 411.5 597 c 128,-1,12
 374 563 374 563 315 563 c 0,13,0
 257 563 257 563 220 597 c 128,-1,1
EndSplineSet
Substitution2: "Single Substitution lookup 12 subtable" uni0306.case
Substitution2: "'case' Case-Sensitive Forms in Latin lookup 9 subtable" uni0306.case
AlternateSubs2: "'aalt' Access All Alternates in Latin lookup 0 subtable" uni0306.case
EndChar
StartChar: uni0307
Encoding: 775 775 337
Width: 0
GlyphClass: 4
Flags: W
AnchorPoint: "Anchor-5" 316 718 basemark 0
AnchorPoint: "Anchor-5" 316 496 mark 0
AnchorPoint: "Anchor-1" 316 496 mark 0
LayerCount: 2
Fore
SplineSet
265.5 596.5 m 128,-1,1
 244 618 244 618 244 647 c 256,2,3
 244 676 244 676 265.5 697 c 128,-1,4
 287 718 287 718 316 718 c 256,5,6
 345 718 345 718 366.5 697 c 128,-1,7
 388 676 388 676 388 647 c 256,8,9
 388 618 388 618 366.5 596.5 c 128,-1,10
 345 575 345 575 316 575 c 256,11,0
 287 575 287 575 265.5 596.5 c 128,-1,1
EndSplineSet
Substitution2: "Single Substitution lookup 12 subtable" uni0307.case
Substitution2: "'case' Case-Sensitive Forms in Latin lookup 9 subtable" uni0307.case
AlternateSubs2: "'aalt' Access All Alternates in Latin lookup 0 subtable" uni0307.case
EndChar
StartChar: uni030A
Encoding: 778 778 353
Width: 0
GlyphClass: 4
Flags: W
AnchorPoint: "Anchor-5" 316 791 basemark 0
AnchorPoint: "Anchor-5" 316 496 mark 0
AnchorPoint: "Anchor-1" 316 496 mark 0
LayerCount: 2
Fore
SplineSet
228.5 581 m 128,-1,1
 192 617 192 617 192 668 c 256,2,3
 192 719 192 719 228.5 755 c 128,-1,4
 265 791 265 791 316 791 c 0,5,6
 368 791 368 791 404 755 c 128,-1,7
 440 719 440 719 440 668 c 256,8,9
 440 617 440 617 404 581 c 128,-1,10
 368 545 368 545 316 545 c 0,11,0
 265 545 265 545 228.5 581 c 128,-1,1
350.5 632.5 m 128,-1,13
 365 647 365 647 365 668 c 256,14,15
 365 689 365 689 350.5 703.5 c 128,-1,16
 336 718 336 718 316 718 c 256,17,18
 296 718 296 718 281.5 703.5 c 128,-1,19
 267 689 267 689 267 668 c 256,20,21
 267 647 267 647 281.5 632.5 c 128,-1,22
 296 618 296 618 316 618 c 256,23,12
 336 618 336 618 350.5 632.5 c 128,-1,13
EndSplineSet
Substitution2: "Single Substitution lookup 12 subtable" uni030A.case
Substitution2: "'case' Case-Sensitive Forms in Latin lookup 9 subtable" uni030A.case
AlternateSubs2: "'aalt' Access All Alternates in Latin lookup 0 subtable" uni030A.case
EndChar
StartChar: uni0326
Encoding: 806 806 359
Width: 0
GlyphClass: 4
Flags: W
AnchorPoint: "Anchor-4" 325 -248 basemark 0
AnchorPoint: "Anchor-4" 327 0 mark 0
AnchorPoint: "Anchor-0" 327 0 mark 0
LayerCount: 2
Fore
SplineSet
284.5 -187.5 m 128,-1,1
 311 -171 311 -171 311 -143 c 0,2,3
 311 -123 311 -123 292.5 -106.5 c 128,-1,4
 274 -90 274 -90 247 -83 c 1,5,-1
 342 -45 l 1,6,7
 420 -79 420 -79 420 -138 c 0,8,9
 420 -186 420 -186 377.5 -216 c 128,-1,10
 335 -246 335 -246 261 -247 c 1,11,-1
 212 -205 l 1,12,0
 258 -204 258 -204 284.5 -187.5 c 128,-1,1
EndSplineSet
EndChar
StartChar: uni0327
Encoding: 807 807 360
Width: 0
GlyphClass: 4
Flags: W
AnchorPoint: "Anchor-4" 309 -186 basemark 0
AnchorPoint: "Anchor-4" 309 0 mark 0
AnchorPoint: "Anchor-0" 309 0 mark 0
LayerCount: 2
Fore
SplineSet
212 -171 m 1,1,-1
 227 -125 l 1,2,3
 237 -131 237 -131 254.5 -134.5 c 128,-1,4
 272 -138 272 -138 290 -138 c 0,5,6
 310 -138 310 -138 322 -131 c 128,-1,7
 334 -124 334 -124 334 -110 c 0,8,9
 334 -97 334 -97 323.5 -90 c 128,-1,10
 313 -83 313 -83 295 -83 c 0,11,12
 290 -83 290 -83 276.5 -86 c 128,-1,13
 263 -89 263 -89 259 -89 c 0,14,15
 250 -89 250 -89 245 -84 c 128,-1,16
 240 -79 240 -79 240 -71 c 0,17,18
 240 -66 240 -66 244 -58 c 2,19,-1
 295 24 l 1,20,-1
 336 1 l 1,21,-1
 304 -49 l 1,22,23
 318 -46 318 -46 337 -46 c 0,24,25
 370 -46 370 -46 395.5 -61 c 128,-1,26
 421 -76 421 -76 421 -106 c 0,27,28
 421 -145 421 -145 385.5 -165.5 c 128,-1,29
 350 -186 350 -186 298 -186 c 0,30,0
 250 -186 250 -186 212 -171 c 1,1,-1
EndSplineSet
EndChar
StartChar: uni03A9
Encoding: 937 937 226
Width: 632
GlyphClass: 1
Flags: W
LayerCount: 2
Fore
SplineSet
32 105 m 1,0,-1
 167 105 l 1,1,-1
 167 135 l 1,2,3
 102 175 102 175 64 241.5 c 128,-1,4
 26 308 26 308 26 386 c 0,5,6
 26 466 26 466 65 533.5 c 128,-1,7
 104 601 104 601 170.5 640.5 c 128,-1,8
 237 680 237 680 316 680 c 256,9,10
 395 680 395 680 461.5 640.5 c 128,-1,11
 528 601 528 601 567 533.5 c 128,-1,12
 606 466 606 466 606 386 c 0,13,14
 606 308 606 308 568 241.5 c 128,-1,15
 530 175 530 175 465 135 c 1,16,-1
 465 105 l 1,17,-1
 600 105 l 1,18,-1
 600 0 l 1,19,-1
 346 0 l 1,20,-1
 346 213 l 1,21,22
 409 224 409 224 451.5 274.5 c 128,-1,23
 494 325 494 325 494 391 c 0,24,25
 494 441 494 441 470 482.5 c 128,-1,26
 446 524 446 524 405 548.5 c 128,-1,27
 364 573 364 573 316 573 c 256,28,29
 268 573 268 573 227 548.5 c 128,-1,30
 186 524 186 524 162 482.5 c 128,-1,31
 138 441 138 441 138 391 c 0,32,33
 138 325 138 325 180.5 274.5 c 128,-1,34
 223 224 223 224 286 213 c 1,35,-1
 286 0 l 1,36,-1
 32 0 l 1,37,-1
 32 105 l 1,0,-1
EndSplineSet
EndChar
StartChar: uni03BC
Encoding: 956 956 227
Width: 632
GlyphClass: 1
Flags: W
LayerCount: 2
Fore
SplineSet
67 496 m 1,0,-1
 208 496 l 1,1,-1
 208 230 l 2,2,3
 208 186 208 186 213 158.5 c 128,-1,4
 218 131 218 131 236 114 c 128,-1,5
 254 97 254 97 289 97 c 0,6,7
 339 97 339 97 362 129.5 c 128,-1,8
 385 162 385 162 385 233 c 2,9,-1
 385 496 l 1,10,-1
 527 496 l 1,11,-1
 527 176 l 2,12,13
 527 137 527 137 537.5 125 c 128,-1,14
 548 113 548 113 582 113 c 2,15,-1
 600 113 l 1,16,-1
 600 0 l 1,17,-1
 524 0 l 2,18,19
 469 0 469 0 441 13.5 c 128,-1,20
 413 27 413 27 401 54 c 1,21,22
 363 -12 363 -12 289 -12 c 0,23,24
 236 -12 236 -12 208 16 c 1,25,-1
 208 -162 l 1,26,-1
 67 -162 l 1,27,-1
 67 496 l 1,0,-1
EndSplineSet
EndChar
StartChar: emdash
Encoding: 8212 8212 266
Width: 632
GlyphClass: 1
Flags: W
LayerCount: 2
Fore
SplineSet
27 308 m 1,0,-1
 605 308 l 1,1,-1
 605 190 l 1,2,-1
 27 190 l 1,3,-1
 27 308 l 1,0,-1
EndSplineSet
EndChar
StartChar: quoteleft
Encoding: 8216 8216 278
Width: 632
GlyphClass: 1
Flags: W
LayerCount: 2
Fore
SplineSet
244 353.5 m 128,-1,1
 215 383 215 383 215 425 c 0,2,3
 215 449 215 449 222 465 c 2,4,-1
 304 671 l 1,5,-1
 395 671 l 1,6,-1
 339 524 l 1,7,8
 372 516 372 516 394.5 488 c 128,-1,9
 417 460 417 460 417 425 c 0,10,11
 417 383 417 383 387 353.5 c 128,-1,12
 357 324 357 324 316 324 c 0,13,0
 273 324 273 324 244 353.5 c 128,-1,1
EndSplineSet
EndChar
StartChar: quotedblleft
Encoding: 8220 8220 276
Width: 632
GlyphClass: 1
Flags: W
LayerCount: 2
Fore
SplineSet
372.5 364.5 m 128,-1,1
 344 393 344 393 344 433 c 0,2,3
 344 451 344 451 351 471 c 2,4,-1
 430 668 l 1,5,-1
 518 668 l 1,6,-1
 463 526 l 1,7,8
 495 520 495 520 517 493 c 128,-1,9
 539 466 539 466 539 433 c 0,10,11
 539 393 539 393 510.5 364.5 c 128,-1,12
 482 336 482 336 441 336 c 0,13,0
 401 336 401 336 372.5 364.5 c 128,-1,1
121.5 363.5 m 128,-1,15
 93 392 93 392 93 432 c 0,16,17
 93 450 93 450 100 470 c 2,18,-1
 179 667 l 1,19,-1
 267 667 l 1,20,-1
 212 526 l 1,21,22
 244 519 244 519 266 492 c 128,-1,23
 288 465 288 465 288 432 c 0,24,25
 288 392 288 392 259.5 363.5 c 128,-1,26
 231 335 231 335 190 335 c 0,27,14
 150 335 150 335 121.5 363.5 c 128,-1,15
EndSplineSet
EndChar
StartChar: perthousand
Encoding: 8240 8240 333
Width: 632
GlyphClass: 1
Flags: W
LayerCount: 2
Fore
SplineSet
113 432 m 128,-1,1
 82 450 82 450 64 481 c 128,-1,2
 46 512 46 512 46 548 c 256,3,4
 46 584 46 584 64 615 c 128,-1,5
 82 646 82 646 113 664 c 128,-1,6
 144 682 144 682 180 682 c 256,7,8
 216 682 216 682 246.5 664 c 128,-1,9
 277 646 277 646 295 615 c 128,-1,10
 313 584 313 584 313 548 c 256,11,12
 313 512 313 512 295 481 c 128,-1,13
 277 450 277 450 246.5 432 c 128,-1,14
 216 414 216 414 180 414 c 256,15,0
 144 414 144 414 113 432 c 128,-1,1
219.5 506 m 128,-1,17
 236 523 236 523 236 548 c 256,18,19
 236 573 236 573 219.5 590 c 128,-1,20
 203 607 203 607 180 607 c 0,21,22
 156 607 156 607 139.5 590 c 128,-1,23
 123 573 123 573 123 548 c 256,24,25
 123 523 123 523 139.5 506 c 128,-1,26
 156 489 156 489 180 489 c 0,27,16
 203 489 203 489 219.5 506 c 128,-1,17
113 4 m 128,-1,29
 82 22 82 22 64 53 c 128,-1,30
 46 84 46 84 46 120 c 256,31,32
 46 156 46 156 64 187 c 128,-1,33
 82 218 82 218 113 236 c 128,-1,34
 144 254 144 254 180 254 c 256,35,36
 216 254 216 254 246.5 236 c 128,-1,37
 277 218 277 218 295 187 c 128,-1,38
 313 156 313 156 313 120 c 256,39,40
 313 84 313 84 295 53 c 128,-1,41
 277 22 277 22 246.5 4 c 128,-1,42
 216 -14 216 -14 180 -14 c 256,43,28
 144 -14 144 -14 113 4 c 128,-1,29
219.5 78 m 128,-1,45
 236 95 236 95 236 120 c 256,46,47
 236 145 236 145 219.5 162 c 128,-1,48
 203 179 203 179 180 179 c 0,49,50
 156 179 156 179 139.5 162 c 128,-1,51
 123 145 123 145 123 120 c 256,52,53
 123 95 123 95 139.5 78 c 128,-1,54
 156 61 156 61 180 61 c 0,55,44
 203 61 203 61 219.5 78 c 128,-1,45
398 4 m 128,-1,57
 367 22 367 22 349 53 c 128,-1,58
 331 84 331 84 331 120 c 256,59,60
 331 156 331 156 349 187 c 128,-1,61
 367 218 367 218 398 236 c 128,-1,62
 429 254 429 254 465 254 c 256,63,64
 501 254 501 254 531.5 236 c 128,-1,65
 562 218 562 218 580 187 c 128,-1,66
 598 156 598 156 598 120 c 256,67,68
 598 84 598 84 580 53 c 128,-1,69
 562 22 562 22 531.5 4 c 128,-1,70
 501 -14 501 -14 465 -14 c 256,71,56
 429 -14 429 -14 398 4 c 128,-1,57
504.5 78 m 128,-1,73
 521 95 521 95 521 120 c 256,74,75
 521 145 521 145 504.5 162 c 128,-1,76
 488 179 488 179 465 179 c 0,77,78
 441 179 441 179 424.5 162 c 128,-1,79
 408 145 408 145 408 120 c 256,80,81
 408 95 408 95 424.5 78 c 128,-1,82
 441 61 441 61 465 61 c 0,83,72
 488 61 488 61 504.5 78 c 128,-1,73
51 336 m 1,84,-1
 594 530 l 1,85,-1
 594 440 l 1,86,-1
 51 246 l 1,87,-1
 51 336 l 1,84,-1
EndSplineSet
EndChar
StartChar: guilsinglleft
Encoding: 8249 8249 282
Width: 632
GlyphClass: 1
Flags: W
LayerCount: 2
Fore
SplineSet
162 250 m 1,0,-1
 310 460 l 1,1,-1
 470 460 l 1,2,-1
 321 250 l 1,3,-1
 470 40 l 1,4,-1
 310 40 l 1,5,-1
 162 250 l 1,0,-1
EndSplineSet
EndChar
StartChar: Euro
Encoding: 8364 8364 305
Width: 632
GlyphClass: 1
Flags: W
LayerCount: 2
Fore
SplineSet
189 58 m 128,-1,1
 120 128 120 128 99 233 c 1,2,-1
 12 233 l 1,3,-1
 46 303 l 1,4,-1
 90 303 l 1,5,6
 88 342 88 342 92 368 c 1,7,-1
 12 368 l 1,8,-1
 46 438 l 1,9,-1
 101 438 l 1,10,11
 126 558 126 558 200 619.5 c 128,-1,12
 274 681 274 681 371 681 c 0,13,14
 448 681 448 681 508 639.5 c 128,-1,15
 568 598 568 598 601 525 c 1,16,-1
 482 482 l 1,17,18
 465 521 465 521 434.5 541 c 128,-1,19
 404 561 404 561 366 561 c 0,20,21
 321 561 321 561 288 530.5 c 128,-1,22
 255 500 255 500 241 438 c 1,23,-1
 436 438 l 1,24,-1
 402 368 l 1,25,-1
 231 368 l 1,26,27
 229 348 229 348 229 336 c 2,28,-1
 231 303 l 1,29,-1
 370 303 l 1,30,-1
 336 233 l 1,31,-1
 242 233 l 1,32,33
 257 174 257 174 290 141 c 128,-1,34
 323 108 323 108 369 108 c 0,35,36
 408 108 408 108 439 126.5 c 128,-1,37
 470 145 470 145 486 185 c 1,38,-1
 604 142 l 1,39,40
 571 69 571 69 509 28.5 c 128,-1,41
 447 -12 447 -12 368 -12 c 0,42,0
 258 -12 258 -12 189 58 c 128,-1,1
EndSplineSet
EndChar
StartChar: uni2113
Encoding: 8467 8467 299
Width: 632
GlyphClass: 1
Flags: W
LayerCount: 2
Fore
SplineSet
224.5 27 m 128,-1,1
 178 66 178 66 178 148 c 2,2,-1
 178 163 l 1,3,-1
 112 117 l 1,4,-1
 112 215 l 1,5,-1
 178 263 l 1,6,-1
 178 460 l 2,7,8
 178 572 178 572 225 626 c 128,-1,9
 272 680 272 680 358 680 c 0,10,11
 432 680 432 680 474.5 641 c 128,-1,12
 517 602 517 602 517 533 c 0,13,14
 517 458 517 458 468 397.5 c 128,-1,15
 419 337 419 337 316 260 c 1,16,-1
 316 184 l 2,17,18
 316 140 316 140 331.5 120.5 c 128,-1,19
 347 101 347 101 379 101 c 0,20,21
 420 101 420 101 460 134 c 1,22,-1
 513 50 l 1,23,24
 485 25 485 25 443 6.5 c 128,-1,25
 401 -12 401 -12 350 -12 c 0,26,0
 271 -12 271 -12 224.5 27 c 128,-1,1
380.5 437 m 128,-1,28
 403 479 403 479 403 523 c 0,29,30
 403 581 403 581 361 581 c 0,31,32
 316 581 316 581 316 504 c 2,33,-1
 316 362 l 1,34,27
 358 395 358 395 380.5 437 c 128,-1,28
EndSplineSet
EndChar
StartChar: trademark
Encoding: 8482 8482 294
Width: 632
GlyphClass: 1
Flags: W
LayerCount: 2
Fore
SplineSet
89 597 m 1,0,-1
 6 597 l 1,1,-1
 6 668 l 1,2,-1
 247 668 l 1,3,-1
 247 597 l 1,4,-1
 163 597 l 1,5,-1
 163 343 l 1,6,-1
 89 343 l 1,7,-1
 89 597 l 1,0,-1
275 668 m 1,8,-1
 393 668 l 1,9,-1
 450 449 l 1,10,-1
 454 449 l 1,11,-1
 511 668 l 1,12,-1
 626 668 l 1,13,-1
 626 343 l 1,14,-1
 554 343 l 1,15,-1
 554 581 l 1,16,-1
 550 581 l 1,17,-1
 484 343 l 1,18,-1
 418 343 l 1,19,-1
 351 581 l 1,20,-1
 347 581 l 1,21,-1
 347 343 l 1,22,-1
 275 343 l 1,23,-1
 275 668 l 1,8,-1
EndSplineSet
EndChar
StartChar: uni2215
Encoding: 8725 8725 310
Width: 632
GlyphClass: 1
Flags: W
LayerCount: 2
Fore
SplineSet
455 668 m 1,0,-1
 599 668 l 1,1,-1
 177 0 l 1,2,-1
 34 0 l 1,3,-1
 455 668 l 1,0,-1
EndSplineSet
EndChar
StartChar: radical
Encoding: 8730 8730 330
Width: 632
GlyphClass: 1
Flags: W
LayerCount: 2
Fore
SplineSet
142 103 m 1,0,-1
 22 103 l 1,1,-1
 22 225 l 1,2,-1
 227 225 l 1,3,-1
 315 8 l 1,4,-1
 485 668 l 1,5,-1
 618 668 l 1,6,-1
 402 -162 l 1,7,-1
 257 -162 l 1,8,-1
 142 103 l 1,0,-1
EndSplineSet
EndChar
StartChar: infinity
Encoding: 8734 8734 326
Width: 632
GlyphClass: 1
Flags: W
LayerCount: 2
Fore
SplineSet
56 142.5 m 128,-1,1
 13 186 13 186 13 256 c 256,2,3
 13 326 13 326 56 369.5 c 128,-1,4
 99 413 99 413 169 413 c 0,5,6
 215 413 215 413 248.5 392.5 c 128,-1,7
 282 372 282 372 316 333 c 1,8,9
 350 372 350 372 383.5 392.5 c 128,-1,10
 417 413 417 413 463 413 c 0,11,12
 533 413 533 413 576 369.5 c 128,-1,13
 619 326 619 326 619 256 c 256,14,15
 619 186 619 186 576 142.5 c 128,-1,16
 533 99 533 99 463 99 c 0,17,18
 417 99 417 99 383.5 119.5 c 128,-1,19
 350 140 350 140 316 179 c 1,20,21
 282 140 282 140 248.5 119.5 c 128,-1,22
 215 99 215 99 169 99 c 0,23,0
 99 99 99 99 56 142.5 c 128,-1,1
215.5 211.5 m 128,-1,25
 233 225 233 225 259 256 c 1,26,27
 233 287 233 287 215.5 300.5 c 128,-1,28
 198 314 198 314 173 314 c 0,29,30
 147 314 147 314 132.5 297.5 c 128,-1,31
 118 281 118 281 118 256 c 256,32,33
 118 231 118 231 132.5 214.5 c 128,-1,34
 147 198 147 198 173 198 c 0,35,24
 198 198 198 198 215.5 211.5 c 128,-1,25
499.5 214.5 m 128,-1,37
 514 231 514 231 514 256 c 256,38,39
 514 281 514 281 499.5 297.5 c 128,-1,40
 485 314 485 314 459 314 c 0,41,42
 434 314 434 314 416.5 300.5 c 128,-1,43
 399 287 399 287 373 256 c 1,44,45
 399 225 399 225 416.5 211.5 c 128,-1,46
 434 198 434 198 459 198 c 0,47,36
 485 198 485 198 499.5 214.5 c 128,-1,37
EndSplineSet
EndChar
StartChar: approxequal
Encoding: 8776 8776 322
Width: 632
GlyphClass: 1
Flags: W
LayerCount: 2
Fore
SplineSet
124.5 199.5 m 128,-1,1
 154 237 154 237 215 237 c 0,2,3
 241 237 241 237 264.5 228.5 c 128,-1,4
 288 220 288 220 322 203 c 0,5,6
 349 190 349 190 367 183 c 128,-1,7
 385 176 385 176 402 176 c 0,8,9
 446 176 446 176 449 241 c 1,10,-1
 544 207 l 1,11,12
 538 136 538 136 508 98.5 c 128,-1,13
 478 61 478 61 418 61 c 0,14,15
 392 61 392 61 368.5 69.5 c 128,-1,16
 345 78 345 78 311 95 c 0,17,18
 284 108 284 108 266 115 c 128,-1,19
 248 122 248 122 231 122 c 0,20,21
 185 122 185 122 184 57 c 1,22,-1
 88 91 l 1,23,0
 95 162 95 162 124.5 199.5 c 128,-1,1
124.5 403.5 m 128,-1,25
 154 441 154 441 215 441 c 0,26,27
 241 441 241 441 264.5 432.5 c 128,-1,28
 288 424 288 424 322 407 c 0,29,30
 349 394 349 394 367 387 c 128,-1,31
 385 380 385 380 402 380 c 0,32,33
 446 380 446 380 449 445 c 1,34,-1
 544 411 l 1,35,36
 538 340 538 340 508 302.5 c 128,-1,37
 478 265 478 265 418 265 c 0,38,39
 392 265 392 265 368.5 273.5 c 128,-1,40
 345 282 345 282 311 299 c 0,41,42
 284 312 284 312 266 319 c 128,-1,43
 248 326 248 326 231 326 c 0,44,45
 185 326 185 326 184 261 c 1,46,-1
 88 295 l 1,47,24
 95 366 95 366 124.5 403.5 c 128,-1,25
EndSplineSet
EndChar
StartChar: lessequal
Encoding: 8804 8804 320
Width: 632
GlyphClass: 1
Flags: W
LayerCount: 2
Fore
SplineSet
64 261 m 1,0,-1
 64 378 l 1,1,-1
 568 505 l 1,2,-1
 568 385 l 1,3,-1
 228 320 l 1,4,-1
 568 253 l 1,5,-1
 568 134 l 1,6,-1
 64 261 l 1,0,-1
64 119 m 1,7,-1
 568 119 l 1,8,-1
 568 0 l 1,9,-1
 64 0 l 1,10,-1
 64 119 l 1,7,-1
EndSplineSet
EndChar
StartChar: lozenge
Encoding: 9674 9674 334
Width: 632
GlyphClass: 1
Flags: W
LayerCount: 2
Fore
SplineSet
60 314 m 1,0,-1
 316 713 l 1,1,-1
 572 314 l 1,2,-1
 316 -87 l 1,3,-1
 60 314 l 1,0,-1
443 314 m 1,4,-1
 316 512 l 1,5,-1
 188 314 l 1,6,-1
 316 115 l 1,7,-1
 443 314 l 1,4,-1
EndSplineSet
EndChar
StartChar: acutecomb.case
Encoding: 65544 -1 343
Width: 0
GlyphClass: 4
Flags: W
AnchorPoint: "Anchor-5" 261 878 basemark 0
AnchorPoint: "Anchor-5" 261 668 mark 0
AnchorPoint: "Anchor-1" 261 668 mark 0
LayerCount: 2
Fore
SplineSet
341 868 m 128,-1,1
 355 876 355 876 370 876 c 0,2,3
 393 876 393 876 407 862 c 128,-1,4
 421 848 421 848 421 828 c 0,5,6
 421 812 421 812 413 800 c 128,-1,7
 405 788 405 788 383 772 c 2,8,-1
 324 731 l 1,9,-1
 211 731 l 1,10,-1
 311 841 l 2,11,0
 327 860 327 860 341 868 c 128,-1,1
EndSplineSet
EndChar
StartChar: uni0307.case
Encoding: 65541 -1 338
Width: 0
GlyphClass: 4
Flags: W
AnchorPoint: "Anchor-5" 316 865 basemark 0
AnchorPoint: "Anchor-5" 316 668 mark 0
AnchorPoint: "Anchor-1" 316 668 mark 0
LayerCount: 2
Fore
SplineSet
265.5 742.5 m 128,-1,1
 244 764 244 764 244 793 c 256,2,3
 244 822 244 822 265.5 843.5 c 128,-1,4
 287 865 287 865 316 865 c 256,5,6
 345 865 345 865 366.5 843.5 c 128,-1,7
 388 822 388 822 388 793 c 256,8,9
 388 764 388 764 366.5 742.5 c 128,-1,10
 345 721 345 721 316 721 c 256,11,0
 287 721 287 721 265.5 742.5 c 128,-1,1
EndSplineSet
EndChar
StartChar: uni030A.case
Encoding: 65550 -1 354
Width: 0
GlyphClass: 4
Flags: W
AnchorPoint: "Anchor-5" 316 858 basemark 0
AnchorPoint: "Anchor-5" 316 668 mark 0
AnchorPoint: "Anchor-1" 316 668 mark 0
LayerCount: 2
Fore
SplineSet
251.5 620.5 m 128,-1,1
 222 638 222 638 205 667.5 c 128,-1,2
 188 697 188 697 188 731 c 0,3,4
 188 784 188 784 225 821 c 128,-1,5
 262 858 262 858 315 858 c 0,6,7
 350 858 350 858 379.5 841 c 128,-1,8
 409 824 409 824 426.5 795 c 128,-1,9
 444 766 444 766 444 731 c 0,10,11
 444 697 444 697 426.5 667.5 c 128,-1,12
 409 638 409 638 379 620.5 c 128,-1,13
 349 603 349 603 315 603 c 256,14,0
 281 603 281 603 251.5 620.5 c 128,-1,1
350 697 m 128,-1,16
 364 711 364 711 364 731 c 256,17,18
 364 751 364 751 350 765 c 128,-1,19
 336 779 336 779 316 779 c 0,20,21
 297 779 297 779 282.5 765 c 128,-1,22
 268 751 268 751 268 731 c 256,23,24
 268 711 268 711 282 697 c 128,-1,25
 296 683 296 683 316 683 c 256,26,15
 336 683 336 683 350 697 c 128,-1,16
EndSplineSet
EndChar
StartChar: uni030C.alt
Encoding: 65546 -1 346
Width: 0
GlyphClass: 4
Flags: W
AnchorPoint: "Anchor-3" 232 496 mark 0
LayerCount: 2
Fore
SplineSet
293.5 704 m 128,-1,1
 308 718 308 718 329 718 c 0,2,3
 353 718 353 718 367 704.5 c 128,-1,4
 381 691 381 691 381 669 c 0,5,6
 381 660 381 660 376.5 646.5 c 128,-1,7
 372 633 372 633 364 616 c 2,8,-1
 327 527 l 1,9,-1
 252 527 l 1,10,-1
 275 664 l 2,11,0
 279 690 279 690 293.5 704 c 128,-1,1
EndSplineSet
EndChar
StartChar: zero.zero
Encoding: 65539 -1 239
Width: 632
GlyphClass: 1
Flags: W
LayerCount: 2
Fore
SplineSet
107.5 80 m 128,-1,1
 34 172 34 172 34 335 c 256,2,3
 34 498 34 498 107.5 589.5 c 128,-1,4
 181 681 181 681 316 681 c 256,5,6
 451 681 451 681 524.5 589.5 c 128,-1,7
 598 498 598 498 598 335 c 256,8,9
 598 172 598 172 524.5 80 c 128,-1,10
 451 -12 451 -12 316 -12 c 256,11,0
 181 -12 181 -12 107.5 80 c 128,-1,1
420 152 m 128,-1,13
 457 212 457 212 457 336 c 0,14,15
 457 435 457 435 423 505.5 c 128,-1,16
 389 576 389 576 316 576 c 0,17,18
 244 576 244 576 209.5 505.5 c 128,-1,19
 175 435 175 435 175 336 c 0,20,21
 175 213 175 213 213 152.5 c 128,-1,22
 251 92 251 92 316 92 c 0,23,12
 383 92 383 92 420 152 c 128,-1,13
261 279 m 128,-1,25
 238 302 238 302 238 334 c 256,26,27
 238 366 238 366 261 389 c 128,-1,28
 284 412 284 412 316 412 c 256,29,30
 348 412 348 412 371 389 c 128,-1,31
 394 366 394 366 394 334 c 256,32,33
 394 302 394 302 371 279 c 128,-1,34
 348 256 348 256 316 256 c 256,35,24
 284 256 284 256 261 279 c 128,-1,25
EndSplineSet
EndChar
